<?xml version="1.0" encoding="UTF-8"?>
<svg width="38px" height="39px" viewBox="0 0 38 39" version="1.1" xmlns="http://www.w3.org/2000/svg" xmlns:xlink="http://www.w3.org/1999/xlink">
    <!-- Generator: Sketch 63.1 (92452) - https://sketch.com -->
    <title>ico-talk</title>
    <desc>Created with Sketch.</desc>
    <g id="Page-1" stroke="none" stroke-width="1" fill="none" fill-rule="evenodd">
        <g id="ico-talk" transform="translate(19.000000, 19.500000) scale(-1, 1) translate(-19.000000, -19.500000) " fill="#D7D8DB" fill-rule="nonzero">
            <path d="M15.3628318,7.94478136 C19.2615048,7.94478136 20.3967301,9.92890893 20.5746828,10.9912951 C21.2086206,11.4845882 21.8650616,12.3787927 21.8650616,14.4484916 L21.8650616,14.4484916 L21.8650616,17.7150034 C22.1738878,17.9542476 22.3826343,18.319924 22.472943,18.6820472 C22.4892282,18.7451153 22.4972228,18.8114404 22.4972228,18.8777656 C22.4972228,19.9514033 21.8763131,21.5328427 21.8067309,21.7093148 C21.7113886,21.951816 21.5044187,22.1312492 21.2521464,22.1943173 C21.3314997,22.1732945 21.2329003,22.3284479 21.2329003,22.6745822 C21.2329003,23.974732 20.2948737,25.3024186 19.3746128,26.1673099 C19.5250287,27.0147317 20.1186976,29.0006359 21.3685114,29.5211695 L21.3685114,29.5211695 L26.9297537,31.3726469 C28.4303594,31.872454 29.5572941,33.0885131 29.9407362,34.6246501 L29.9407362,34.6246501 L30.7008101,37.6649459 C30.7606211,37.9056705 30.7070281,38.1629764 30.5536513,38.3583986 C30.3999784,38.5541169 30.1654717,38.6690015 29.9164565,38.6690015 L29.9164565,38.6690015 L0.809207053,38.6690015 C0.560191805,38.6690015 0.325685157,38.5541169 0.173788748,38.3569181 C0.020115888,38.1611998 -0.0349576809,37.90419 0.0266299237,37.6631693 L0.0266299237,37.6631693 L0.786407739,34.6231696 C1.16984982,33.0885131 2.29530405,31.872454 3.79739025,31.3711664 L3.79739025,31.3711664 L9.41370604,29.4986664 C10.6167369,28.9956022 11.2021153,27.0114746 11.3525312,26.1658295 C10.4340468,25.3006421 9.49453975,23.9729555 9.49453975,22.6728056 C9.49453975,22.3251909 9.40867238,22.1812891 9.37491768,22.1555289 C9.12264537,22.0924608 9.01575537,21.948559 8.91863645,21.7075383 C8.84935036,21.5313622 8.22814465,19.9499228 8.22814465,18.8759889 C8.22814465,18.8096638 8.23643529,18.7451153 8.25242434,18.6802707 C8.34154877,18.3181474 8.54999912,17.9527671 8.86060198,17.7135229 L8.86060198,17.7135229 L8.86060198,14.4470112 C8.86060198,11.7318268 11.332989,7.94478136 15.3628318,7.94478136 Z M26.6822189,0.667969 C32.9241819,0.667969 38.0019022,3.93270419 38.0019022,7.94478136 C38.0019022,10.9702724 35.0311886,13.711217 30.6069483,14.763832 L30.6069483,14.763832 L30.3594135,14.8221626 L24.2566148,21.6912531 L24.985895,15.1375029 L24.2921461,15.040384 L24.2921461,14.4470112 C24.2921461,12.3900444 23.779607,10.8296276 22.726992,9.68463119 C22.3047615,8.55118239 20.7816527,5.76819249 16.0127586,5.53516629 C16.0613181,5.44456149 16.1131346,5.35425276 16.1682081,5.26838539 C17.8885157,2.47266341 22.0169579,0.667969 26.6822189,0.667969 Z" id="Combined-Shape" transform="translate(19.001902, 19.668485) scale(-1, 1) translate(-19.001902, -19.668485) "></path>
        </g>
    </g>
</svg>