<?xml version="1.0" encoding="UTF-8"?>
<svg width="46px" height="43px" viewBox="0 0 46 43" version="1.1" xmlns="http://www.w3.org/2000/svg" xmlns:xlink="http://www.w3.org/1999/xlink">
    <!-- Generator: Sketch 62 (91390) - https://sketch.com -->
    <title>Combined Shape 5</title>
    <desc>Created with Sketch.</desc>
    <g id="Website" stroke="none" stroke-width="1" fill="none" fill-rule="evenodd">
        <g id="homepage-1680" transform="translate(-340.000000, -8416.000000)" fill="#FBFCFE" fill-rule="nonzero">
            <g id="Group-20" transform="translate(340.000000, 8408.000000)">
                <g id="Group-10">
                    <g id="Combined-Shape-5" transform="translate(0.000000, 8.000000)">
                        <path d="M21.0361956,-9.52127266e-13 C25.0694024,-9.52127266e-13 28.9933576,1.14924334 32.3840106,3.32552228 C33.0496754,3.75412491 33.2447176,4.64144438 32.8161149,5.30885997 C32.3861116,5.97627547 31.500543,6.16921671 30.8331274,5.74096422 C27.907144,3.86092539 24.518592,2.86855616 21.0361956,2.86855616 C11.0190096,2.86855616 2.86855621,11.0190097 2.86855621,21.0361956 C2.86855621,31.0530314 11.0190096,39.2034848 21.0361956,39.2034848 C31.0530314,39.2034848 39.2034848,31.0530314 39.2034848,21.0361956 C39.2034848,20.4374125 39.1747712,19.8445822 39.119445,19.2615565 C39.043109,18.4715831 39.620532,17.7716021 40.4084045,17.695266 C41.2001288,17.6224316 41.8980087,18.196353 41.974695,18.9842254 C42.0394756,19.6593446 42.072041,20.3439183 42.072041,21.0361956 C42.072041,32.6347292 32.6347292,42.072041 21.0361956,42.072041 C9.43766198,42.072041 -2.30926389e-13,32.6347292 -2.30926389e-13,21.0361956 C-2.30926389e-13,9.43766193 9.43766198,-9.52127266e-13 21.0361956,-9.52127266e-13 Z M45.4781013,2.33315306 C46.0383662,2.89341794 46.0383662,3.80174743 45.4781013,4.36201231 L24.4419057,25.3982079 C24.1607229,25.6772898 23.7937494,25.8170058 23.4264256,25.8170058 C23.0594521,25.8170058 22.6921285,25.6772898 22.4130466,25.396457 L13.8073779,16.7907884 C13.2471131,16.2301734 13.2471131,15.321844 13.8073779,14.7615791 C14.3676428,14.2013142 15.2759722,14.2013142 15.8362371,14.7615791 L23.4285267,22.3538686 L43.4488919,2.33315306 C44.009507,1.77288817 44.9178365,1.77288817 45.4781013,2.33315306 Z" id="Combined-Shape"></path>
                    </g>
                </g>
            </g>
        </g>
    </g>
</svg>