<?xml version="1.0" encoding="UTF-8"?>
<svg width="60px" height="46px" viewBox="0 0 60 46" version="1.1" xmlns="http://www.w3.org/2000/svg" xmlns:xlink="http://www.w3.org/1999/xlink">
    <!-- Generator: Sketch 62 (91390) - https://sketch.com -->
    <title>ico-cloud</title>
    <desc>Created with Sketch.</desc>
    <g id="Website" stroke="none" stroke-width="1" fill="none" fill-rule="evenodd">
        <g id="homepage-1680" transform="translate(-655.000000, -2881.000000)" fill="#EDEDEF" fill-rule="nonzero">
            <g id="ico-cloud" transform="translate(685.000000, 2904.000000) scale(-1, 1) translate(-685.000000, -2904.000000) translate(655.000000, 2881.000000)">
                <path d="M57.4101562,23.3431641 C56.0046094,21.46125 54.0855469,19.9756641 51.9255469,19.0792969 C51.4832812,16.5734766 50.2395703,14.2773047 48.3540234,12.5218359 C46.224375,10.5391406 43.4642578,9.42539063 40.5598828,9.37183594 C39.1241016,6.7875 37.0726172,4.59269531 34.5735938,2.9784375 C31.6676953,1.10144531 28.295625,0.109335938 24.8219531,0.109335938 C17.50875,0.109335938 11.2010156,4.494375 8.38816406,10.7729297 L20.5456641,10.7729297 C25.3919531,10.7729297 29.3347266,14.7157031 29.3347266,19.5619922 L29.3347266,39.8511328 C29.3347266,41.4338672 28.9120313,42.9189844 28.1767969,44.203125 L46.9449609,44.203125 C54.1434375,44.203125 59.9996485,38.3467969 59.9996485,31.1485547 C59.9996485,28.3105078 59.1043359,25.6115625 57.4101562,23.3431641 Z" id="Path"></path>
                <path d="M20.5457813,14.2886719 L5.2734375,14.2886719 C2.36566406,14.2886719 0,16.6543359 0,19.5621094 L0,39.85125 C0,42.7590234 2.36566406,45.1246875 5.2734375,45.1246875 L20.5457813,45.1246875 C23.4536719,45.1246875 25.8192188,42.7591406 25.8192188,39.85125 L25.8192188,19.5621094 C25.8192188,16.6543359 23.4535547,14.2886719 20.5457813,14.2886719 Z M18.6117187,37.4923828 L7.2075,37.4923828 C6.23671875,37.4923828 5.4496875,36.7053516 5.4496875,35.7345703 C5.4496875,34.7637891 6.23671875,33.9767578 7.2075,33.9767578 L18.6117187,33.9767578 C19.5825,33.9767578 20.3695312,34.7637891 20.3695312,35.7345703 C20.3695312,36.7053516 19.5825,37.4923828 18.6117187,37.4923828 Z M18.6117187,31.4644922 L7.2075,31.4644922 C6.23671875,31.4644922 5.4496875,30.6774609 5.4496875,29.7066797 C5.4496875,28.7358984 6.23671875,27.9488672 7.2075,27.9488672 L18.6117187,27.9488672 C19.5825,27.9488672 20.3695312,28.7358984 20.3695312,29.7066797 C20.3695312,30.6774609 19.5825,31.4644922 18.6117187,31.4644922 Z M18.6117187,25.4364844 L7.2075,25.4364844 C6.23671875,25.4364844 5.4496875,24.6494531 5.4496875,23.6786719 C5.4496875,22.7078906 6.23671875,21.9208594 7.2075,21.9208594 L18.6117187,21.9208594 C19.5825,21.9208594 20.3695312,22.7078906 20.3695312,23.6786719 C20.3695312,24.6494531 19.5825,25.4364844 18.6117187,25.4364844 Z" id="Shape"></path>
            </g>
        </g>
    </g>
</svg>