<?xml version="1.0" encoding="UTF-8"?>
<svg width="44px" height="56px" viewBox="0 0 44 56" version="1.1" xmlns="http://www.w3.org/2000/svg" xmlns:xlink="http://www.w3.org/1999/xlink">
    <!-- Generator: Sketch 62 (91390) - https://sketch.com -->
    <title>ico-documents</title>
    <desc>Created with Sketch.</desc>
    <g id="Website" stroke="none" stroke-width="1" fill="none" fill-rule="evenodd">
        <g id="homepage-1680" transform="translate(-235.000000, -2881.000000)" fill="#EDEDEF" fill-rule="nonzero">
            <g id="ico-documents" transform="translate(235.000000, 2881.000000)">
                <g id="Group-11" transform="translate(0.054731, 0.000000)">
                    <path d="M12.3361703,10.4435407 L12.3361703,1.27539005e-13 L12.2194403,1.27539005e-13 C11.782879,1.27539005e-13 11.3647038,0.173375813 11.0559895,0.481267218 L0.481885019,11.0418152 C0.173170711,11.3501337 -3.6166192e-13,11.7677728 -3.6166192e-13,12.2037744 L-3.6166192e-13,12.3207817 L10.4569471,12.3207817 C11.493406,12.3207817 12.3361703,11.4786709 12.3361703,10.4435407 Z" id="Path"></path>
                    <path d="M36.775051,43.8854185 L36.775051,5.16326675 C36.775051,2.32434547 34.4767974,2.0250468e-13 31.6051562,2.0250468e-13 L15.6272695,2.0250468e-13 L15.6272695,10.4435407 C15.6272695,13.2905757 13.3076368,15.6068075 10.4569471,15.6068075 L-4.13327908e-13,15.6068075 L-4.13327908e-13,43.8854185 C-4.13327908e-13,46.7324534 2.31920514,49.0486852 5.16989482,49.0486852 L31.6051562,49.0486852 C34.4477218,49.0486852 36.775051,46.7533781 36.775051,43.8854185 L36.775051,43.8854185 Z M19.2685584,38.4881372 L10.4569471,38.4881372 C9.54833521,38.4881372 8.81161128,37.7523579 8.81161128,36.8449108 C8.81161128,35.9374638 9.54833521,35.2016844 10.4569471,35.2016844 L19.2685584,35.2016844 C20.1775979,35.2016844 20.9138942,35.9374638 20.9138942,36.8449108 C20.9138942,37.7523579 20.1775979,38.4881372 19.2685584,38.4881372 Z M26.318104,31.4476294 L10.4569471,31.4476294 C9.54833521,31.4476294 8.81161128,30.7122771 8.81161128,29.804403 C8.81161128,28.8969561 9.54833521,28.1611767 10.4569471,28.1611767 L26.318104,28.1611767 C27.2267158,28.1611767 27.9634398,28.8969561 27.9634398,29.804403 C27.9634398,30.7122771 27.2267158,31.4476294 26.318104,31.4476294 Z M26.318104,24.4075488 L10.4569471,24.4075488 C9.54833521,24.4075488 8.81161128,23.6717694 8.81161128,22.7643224 C8.81161128,21.8568755 9.54833521,21.121096 10.4569471,21.121096 L26.318104,21.121096 C27.2267158,21.121096 27.9634398,21.8568755 27.9634398,22.7643224 C27.9634398,23.6717694 27.2267158,24.4075488 26.318104,24.4075488 Z" id="Shape"></path>
                    <path d="M40.0657226,7.11908196 L40.0657226,43.8854185 C40.0657226,48.5443582 36.2705042,52.335138 31.6051562,52.335138 L7.28001225,52.335138 C7.93335765,54.439561 9.90023517,55.9721856 12.2194403,55.9721856 L38.6542741,55.9721856 C41.4972674,55.9721856 43.8245966,53.6768785 43.8245966,50.8089189 L43.8245966,12.0867671 C43.8245966,9.73252934 42.2433981,7.73358375 40.0657226,7.11908196 Z" id="Path"></path>
                </g>
            </g>
        </g>
    </g>
</svg>