<?xml version="1.0" encoding="UTF-8"?>
<svg width="460px" height="499px" viewBox="0 0 460 499" version="1.1" xmlns="http://www.w3.org/2000/svg" xmlns:xlink="http://www.w3.org/1999/xlink">
    <!-- Generator: Sketch 62 (91390) - https://sketch.com -->
    <title>Combined Shape</title>
    <desc>Created with Sketch.</desc>
    <g id="Website" stroke="none" stroke-width="1" fill="none" fill-rule="evenodd">
        <g id="homepage-1680" transform="translate(-293.000000, -176.000000)" fill="#F4F4F5">
            <g id="Group-25" transform="translate(293.000000, 176.000000)">
                <path d="M242.796992,9.09494702e-13 C270.005013,9.09494702e-13 295.714286,3.78536368 319.924812,11.356091 C344.135338,18.9268184 365.809524,29.9489067 384.947368,44.4223561 C404.085213,58.8958054 419.879699,76.8206158 432.330827,98.1967871 C444.781955,119.572959 452.621554,144.066488 455.849624,171.677376 L455.849624,171.677376 L350.706767,171.677376 C348.862155,159.65328 344.711779,148.631191 338.255639,138.611111 C331.799499,128.591031 323.729323,119.795627 314.045113,112.2249 C304.360902,104.654172 293.408521,98.7534583 281.18797,94.5227577 C268.967419,90.2920571 256.170426,88.1767068 242.796992,88.1767068 C218.35589,88.1767068 197.60401,92.7414101 180.541353,101.870817 C163.478697,111.000223 149.64411,123.246988 139.037594,138.611111 C128.431078,153.975234 120.706767,171.454708 115.864662,191.049531 C111.022556,210.644355 108.601504,230.907184 108.601504,251.838019 C108.601504,271.878179 111.022556,291.361669 115.864662,310.288487 C120.706767,329.215306 128.431078,346.249442 139.037594,361.390897 C149.64411,376.532352 163.478697,388.667782 180.541353,397.797189 C197.60401,406.926595 218.35589,411.491299 242.796992,411.491299 C276,411.491299 301.93985,401.693887 320.616541,382.099063 C339.293233,362.504239 350.706767,336.674699 354.857143,304.610442 L354.857143,304.610442 L460,304.610442 C457.233083,334.448014 450.085213,361.390897 438.556391,385.43909 C427.027569,409.487282 411.809524,429.97278 392.902256,446.895582 C373.994987,463.818385 351.859649,476.733155 326.496241,485.639893 C301.132832,494.546631 273.233083,499 242.796992,499 C233.558493,499 224.547076,498.621218 215.762742,497.863655 L1.42424636,281.759012 C0.474748786,271.985927 0,262.012262 0,251.838019 C0,216.211066 5.53383459,183.144801 16.6015038,152.639224 C27.6691729,122.133646 43.5789474,95.5247657 64.3308271,72.8125837 C85.0827068,50.1004016 110.561404,32.2869255 140.766917,19.3721553 C170.972431,6.4573851 204.982456,9.09494702e-13 242.796992,9.09494702e-13 Z" id="Combined-Shape"></path>
            </g>
        </g>
    </g>
</svg>