<?xml version="1.0" encoding="UTF-8"?>
<svg width="1679px" height="341px" viewBox="0 0 1679 341" version="1.1" xmlns="http://www.w3.org/2000/svg" xmlns:xlink="http://www.w3.org/1999/xlink">
    <!-- Generator: Sketch 62 (91390) - https://sketch.com -->
    <title>Combined Shape</title>
    <desc>Created with Sketch.</desc>
    <defs>
        <linearGradient x1="50%" y1="0%" x2="50%" y2="100%" id="linearGradient-1">
            <stop stop-color="#6B7083" offset="0%"></stop>
            <stop stop-color="#393D4C" stop-opacity="0" offset="100%"></stop>
        </linearGradient>
    </defs>
    <g id="Website" stroke="none" stroke-width="1" fill="none" fill-rule="evenodd" opacity="0.04">
        <g id="homepage-1680" transform="translate(0.000000, -6551.000000)" fill="url(#linearGradient-1)">
            <g id="Combined-Shape" transform="translate(-12.000000, 4195.000000)">
                <path d="M819.247598,2366 C842.19118,2366 864.212922,2368.46542 885.312823,2373.39625 C906.412725,2378.32709 925.156812,2386.31504 941.545085,2397.36011 C957.933358,2408.40518 970.94155,2422.50736 980.56966,2439.66667 C990.19777,2456.82597 995.011826,2477.63409 995.011826,2502.09103 L995.011826,2502.09103 L901.59867,2502.09103 C900.779256,2489.46809 898.013735,2479.01473 893.302106,2470.73092 C888.590478,2462.44712 882.342449,2455.93842 874.558019,2451.20482 C866.77359,2446.47122 857.862466,2443.11825 847.824649,2441.14592 C837.786832,2439.17358 826.827174,2438.18742 814.945676,2438.18742 C807.161247,2438.18742 799.376817,2438.97635 791.592387,2440.55422 C783.807958,2442.13208 776.740515,2444.89335 770.390059,2448.83802 C764.039603,2452.78269 758.815841,2457.71352 754.718773,2463.63052 C750.621705,2469.54752 748.573171,2477.04239 748.573171,2486.11513 C748.573171,2494.39893 750.211998,2501.10486 753.489653,2506.23293 C756.767307,2511.361 763.22019,2516.0946 772.8483,2520.43373 C782.47641,2524.77287 795.791882,2529.112 812.794715,2533.45114 C829.797549,2537.79027 852.024144,2543.31281 879.474501,2550.01874 C887.668638,2551.59661 899.038002,2554.45649 913.582594,2558.59839 C928.127186,2562.74029 942.569352,2569.34761 956.909091,2578.42035 C971.24883,2587.49308 983.642461,2599.62294 994.089985,2614.80991 C1004.53751,2629.99688 1009.76127,2649.42436 1009.76127,2673.09237 C1009.76127,2692.42124 1005.86906,2710.36948 998.084627,2726.93708 C990.300197,2743.50469 978.725979,2757.80411 963.361973,2769.83534 C947.997967,2781.86658 928.9466,2791.23516 906.207871,2797.9411 C883.469143,2804.64703 857.145479,2808 827.236881,2808 C803.064178,2808 779.608463,2805.14012 756.869734,2799.42035 C734.131005,2793.70058 714.055371,2784.72646 696.642831,2772.49799 C679.230291,2760.26952 665.402685,2744.68809 655.160015,2725.75368 C644.917344,2706.81928 640.000862,2684.33467 640.410569,2658.29987 L640.410569,2658.29987 L733.823725,2658.29987 C733.823725,2672.50067 736.486819,2684.53191 741.813008,2694.39357 C747.139197,2704.25524 754.20664,2712.2432 763.015336,2718.35743 C771.824033,2724.47166 782.16913,2729.00803 794.050628,2731.96653 C805.932126,2734.92503 818.223331,2736.40428 830.924242,2736.40428 C839.528086,2736.40428 848.746489,2735.71397 858.579453,2734.33333 C868.412417,2732.9527 877.63082,2730.29005 886.234664,2726.34538 C894.838507,2722.40071 902.008376,2716.9768 907.744272,2710.07363 C913.480168,2703.17046 916.348115,2694.39357 916.348115,2683.74297 C916.348115,2672.30344 912.558327,2663.03347 904.978751,2655.93307 C897.399175,2648.83266 887.463784,2642.91566 875.172579,2638.18206 C862.881375,2633.44846 848.951343,2629.30656 833.382483,2625.75636 C817.813624,2622.20616 802.039911,2618.26149 786.061345,2613.92236 C769.673072,2609.97769 753.694506,2605.14547 738.125647,2599.4257 C722.556787,2593.70593 708.626755,2586.30968 696.335551,2577.23695 C684.044346,2568.16421 674.108955,2556.82329 666.529379,2543.21419 C658.949803,2529.60509 655.160015,2513.1361 655.160015,2493.80723 C655.160015,2472.11156 659.97407,2453.27577 669.60218,2437.29987 C679.230291,2421.32396 691.828776,2408.01071 707.397635,2397.36011 C722.966494,2386.7095 740.583888,2378.82017 760.249815,2373.6921 C779.915743,2368.56403 799.58167,2366 819.247598,2366 Z M1161.55765,2376.0589 L1161.55765,2638.77376 C1161.55765,2650.2133 1162.58192,2661.4556 1164.63045,2672.50067 C1166.67898,2683.54574 1170.98091,2693.30879 1177.53622,2701.78983 C1184.09153,2710.27086 1193.2075,2717.17403 1204.88415,2722.49933 C1216.56079,2727.82463 1232.23208,2730.48728 1251.898,2730.48728 C1286.31338,2730.48728 1310.07637,2723.09103 1323.18699,2708.29853 C1336.29761,2693.50602 1342.85292,2670.3311 1342.85292,2638.77376 L1342.85292,2638.77376 L1342.85292,2376.0589 L1439.33888,2376.0589 L1439.33888,2638.77376 C1439.33888,2695.97144 1422.74575,2738.47523 1389.5595,2766.28514 C1356.37324,2794.09505 1310.48608,2808 1251.898,2808 C1192.49051,2808 1146.50092,2794.19366 1113.92923,2766.58099 C1081.35754,2738.96832 1065.07169,2696.36591 1065.07169,2638.77376 L1065.07169,2638.77376 L1065.07169,2376.0589 L1161.55765,2376.0589 Z M1673.48633,2366 C1696.42991,2366 1718.45165,2368.46542 1739.55155,2373.39625 C1760.65145,2378.32709 1779.39554,2386.31504 1795.78381,2397.36011 C1812.17209,2408.40518 1825.18028,2422.50736 1834.80839,2439.66667 C1844.4365,2456.82597 1849.25055,2477.63409 1849.25055,2502.09103 L1849.25055,2502.09103 L1755.8374,2502.09103 C1755.01798,2489.46809 1752.25246,2479.01473 1747.54084,2470.73092 C1742.82921,2462.44712 1736.58118,2455.93842 1728.79675,2451.20482 C1721.01232,2446.47122 1712.10119,2443.11825 1702.06338,2441.14592 C1692.02556,2439.17358 1681.0659,2438.18742 1669.18441,2438.18742 C1661.39998,2438.18742 1653.61555,2438.97635 1645.83112,2440.55422 C1638.04669,2442.13208 1630.97924,2444.89335 1624.62879,2448.83802 C1618.27833,2452.78269 1613.05457,2457.71352 1608.9575,2463.63052 C1604.86043,2469.54752 1602.8119,2477.04239 1602.8119,2486.11513 C1602.8119,2494.39893 1604.45073,2501.10486 1607.72838,2506.23293 C1611.00604,2511.361 1617.45892,2516.0946 1627.08703,2520.43373 C1636.71514,2524.77287 1650.03061,2529.112 1667.03344,2533.45114 C1684.03628,2537.79027 1706.26287,2543.31281 1733.71323,2550.01874 C1741.90737,2551.59661 1753.27673,2554.45649 1767.82132,2558.59839 C1782.36592,2562.74029 1796.80808,2569.34761 1811.14782,2578.42035 C1825.48756,2587.49308 1837.88119,2599.62294 1848.32871,2614.80991 C1858.77624,2629.99688 1864,2649.42436 1864,2673.09237 C1864,2692.42124 1860.10779,2710.36948 1852.32336,2726.93708 C1844.53893,2743.50469 1832.96471,2757.80411 1817.6007,2769.83534 C1802.2367,2781.86658 1783.18533,2791.23516 1760.4466,2797.9411 C1737.70787,2804.64703 1711.38421,2808 1681.47561,2808 C1657.30291,2808 1633.84719,2805.14012 1611.10846,2799.42035 C1588.36973,2793.70058 1568.2941,2784.72646 1550.88156,2772.49799 C1533.46902,2760.26952 1519.64141,2744.68809 1509.39874,2725.75368 C1499.15607,2706.81928 1494.23959,2684.33467 1494.6493,2658.29987 L1494.6493,2658.29987 L1588.06245,2658.29987 C1588.06245,2672.50067 1590.72555,2684.53191 1596.05174,2694.39357 C1601.37793,2704.25524 1608.44537,2712.2432 1617.25407,2718.35743 C1626.06276,2724.47166 1636.40786,2729.00803 1648.28936,2731.96653 C1660.17085,2734.92503 1672.46206,2736.40428 1685.16297,2736.40428 C1693.76681,2736.40428 1702.98522,2735.71397 1712.81818,2734.33333 C1722.65115,2732.9527 1731.86955,2730.29005 1740.47339,2726.34538 C1749.07724,2722.40071 1756.24711,2716.9768 1761.983,2710.07363 C1767.7189,2703.17046 1770.58684,2694.39357 1770.58684,2683.74297 C1770.58684,2672.30344 1766.79706,2663.03347 1759.21748,2655.93307 C1751.6379,2648.83266 1741.70251,2642.91566 1729.41131,2638.18206 C1717.1201,2633.44846 1703.19007,2629.30656 1687.62121,2625.75636 C1672.05235,2622.20616 1656.27864,2618.26149 1640.30007,2613.92236 C1623.9118,2609.97769 1607.93323,2605.14547 1592.36438,2599.4257 C1576.79552,2593.70593 1562.86548,2586.30968 1550.57428,2577.23695 C1538.28307,2568.16421 1528.34768,2556.82329 1520.76811,2543.21419 C1513.18853,2529.60509 1509.39874,2513.1361 1509.39874,2493.80723 C1509.39874,2472.11156 1514.2128,2453.27577 1523.84091,2437.29987 C1533.46902,2421.32396 1546.0675,2408.01071 1561.63636,2397.36011 C1577.20522,2386.7095 1594.82262,2378.82017 1614.48854,2373.6921 C1634.15447,2368.56403 1653.8204,2366 1673.48633,2366 Z M465.875462,2376.0589 L629.963045,2798.5328 L529.789727,2798.5328 L496.603474,2704.45248 L332.515891,2704.45248 L298.100517,2798.5328 L201,2798.5328 L366.931264,2376.0589 L465.875462,2376.0589 Z M-9.59398496,2356 C14.6566416,2356 37.5714286,2359.35297 59.1503759,2366.0589 C80.7293233,2372.76484 100.047619,2382.52789 117.105263,2395.34806 C134.162907,2408.16823 148.240602,2424.04552 159.338346,2442.97992 C170.25416,2461.60392 177.193357,2482.8994 180.155937,2506.86636 L180.300752,2508.06693 L86.5864662,2508.06693 C84.9423559,2497.41633 81.2431078,2487.65328 75.4887218,2478.77778 C69.7343358,2469.90228 62.5413534,2462.11156 53.9097744,2455.40562 C45.2781955,2448.69969 35.5162907,2443.473 24.6240602,2439.72557 C13.7318296,2435.97813 2.32581454,2434.10442 -9.59398496,2434.10442 C-31.3784461,2434.10442 -49.8746867,2438.1477 -65.0827068,2446.23427 C-80.2907268,2454.32084 -92.6215539,2465.16867 -102.075188,2478.77778 C-111.528822,2492.38688 -118.413534,2507.8697 -122.729323,2525.22624 C-127.045113,2542.58278 -129.203008,2560.53101 -129.203008,2579.07095 C-129.203008,2596.82195 -127.045113,2614.07988 -122.729323,2630.84471 C-118.413534,2647.60955 -111.528822,2662.6979 -102.075188,2676.10977 C-92.6215539,2689.52164 -80.2907268,2700.27086 -65.0827068,2708.35743 C-49.8746867,2716.444 -31.3784461,2720.48728 -9.59398496,2720.48728 C20,2720.48728 43.1203008,2711.80901 59.7669173,2694.45248 C76.2285714,2677.28879 86.3596018,2654.72461 90.1600084,2626.75994 L90.2857143,2625.81526 L184,2625.81526 C181.533835,2652.24453 175.162907,2676.10977 164.887218,2697.41098 C154.611529,2718.71218 141.047619,2736.85765 124.195489,2751.84739 C107.343358,2766.83713 87.6140351,2778.27666 65.0075188,2786.166 C42.4010025,2794.05533 17.5338346,2798 -9.59398496,2798 C-18.0451585,2798 -26.2831311,2797.64658 -34.3079025,2796.93974 L-224.625565,2606.62593 C-225.541855,2597.6333 -226,2588.44831 -226,2579.07095 C-226,2547.51361 -221.067669,2518.22445 -211.203008,2491.20348 C-201.338346,2464.18251 -187.157895,2440.61312 -168.661654,2420.49531 C-150.165414,2400.37751 -127.45614,2384.59884 -100.533835,2373.1593 C-73.6115288,2361.71977 -43.2982456,2356 -9.59398496,2356 Z M416.096083,2480.19813 L414.866962,2480.19813 L357.71286,2635.22356 L471.406504,2635.22356 L416.096083,2480.19813 Z"></path>
            </g>
        </g>
    </g>
</svg>