<?xml version="1.0" encoding="UTF-8"?>
<svg width="97px" height="21px" viewBox="0 0 97 21" version="1.1" xmlns="http://www.w3.org/2000/svg" xmlns:xlink="http://www.w3.org/1999/xlink">
    <!-- Generator: Sketch 63.1 (92452) - https://sketch.com -->
    <title>Combined-Shape</title>
    <desc>Created with Sketch.</desc>
    <g id="Dashboard" stroke="none" stroke-width="1" fill="none" fill-rule="evenodd">
        <path d="M64.381893,0.9016197 L64.381893,13.1258401 C64.381893,13.6581259 64.429455,14.1812345 64.524579,14.6951656 C64.619704,15.2090968 64.819465,15.6633753 65.123862,16.058001 C65.42826,16.4526267 65.851563,16.7738337 66.393771,17.021622 C66.935979,17.2694102 67.66368,17.3933044 68.576873,17.3933044 C70.17496,17.3933044 71.278402,17.049154 71.887197,16.3608533 C72.495992,15.6725526 72.80039,14.5942149 72.80039,13.1258401 L72.80039,13.1258401 L72.80039,0.9016197 L77.280742,0.9016197 L77.280742,13.1258401 C77.280742,15.7872694 76.510236,17.7649867 74.969223,19.058992 C73.42821,20.3529973 71.297426,21 68.576873,21 C65.818269,21 63.68273,20.357586 62.170254,19.0727581 C60.657779,17.7879301 59.901541,15.8056241 59.901541,13.1258401 L59.901541,13.1258401 L59.901541,0.9016197 L64.381893,0.9016197 Z M48.4866302,0.4335752 C49.5520218,0.4335752 50.5746076,0.548292 51.5543874,0.7777256 C52.5341672,1.0071592 53.4045541,1.3788415 54.1655482,1.8927727 C54.9265422,2.4067039 55.5305812,3.0628839 55.9776652,3.8613127 C56.4247492,4.6597415 56.6482912,5.6279512 56.6482912,6.7659416 L56.6482912,6.7659416 L52.3106252,6.7659416 C52.2725755,6.1785917 52.1441578,5.6921925 51.925372,5.3067442 C51.7065862,4.9212958 51.4164572,4.6184435 51.054985,4.3981872 C50.6935129,4.177931 50.2797224,4.0219162 49.8136135,3.9301428 C49.3475047,3.8383693 48.8385899,3.7924826 48.2868692,3.7924826 C47.9253971,3.7924826 47.5639249,3.829192 47.2024527,3.9026107 C46.8409806,3.9760295 46.5128019,4.1045123 46.2179167,4.2880591 C45.9230315,4.471606 45.6804647,4.7010395 45.4902162,4.9763598 C45.2999676,5.2516801 45.2048434,5.6004191 45.2048434,6.0225769 C45.2048434,6.4080253 45.2809428,6.7200549 45.4331416,6.9586658 C45.5853404,7.1972767 45.8849818,7.417533 46.3320658,7.6194345 C46.7791498,7.821336 47.3974575,8.0232376 48.1869888,8.2251391 C48.9765201,8.4270406 50.0086182,8.6840062 51.2832833,8.9960359 C51.6637803,9.0694546 52.1917199,9.2025261 52.8671021,9.3952503 C53.5424843,9.5879745 54.2131103,9.8954155 54.8789801,10.3175732 C55.5448499,10.739731 56.1203516,11.3041375 56.6054853,12.0107929 C57.090619,12.7174483 57.3331858,13.6214166 57.3331858,14.7226977 C57.3331858,15.6220772 57.1524498,16.4572154 56.7909776,17.2281122 C56.4295054,17.999009 55.8920534,18.6643663 55.1786215,19.2241842 C54.4651896,19.7840021 53.580534,20.2199259 52.5246548,20.5319555 C51.4687756,20.8439852 50.2464289,21 48.8576148,21 C47.7351486,21 46.6459758,20.8669285 45.5900966,20.6007856 C44.5342174,20.3346427 43.6019997,19.9170736 42.7934435,19.3480783 C41.9848874,18.7790831 41.3427987,18.054073 40.8671774,17.1730481 C40.3915561,16.2920232 40.1632579,15.2458062 40.1822828,14.034397 L40.1822828,14.034397 L44.5199488,14.034397 C44.5199488,14.6951656 44.6436103,15.2549835 44.8909334,15.7138507 C45.1382564,16.1727178 45.4664351,16.5444002 45.8754694,16.8288978 C46.2845037,17.1133954 46.7648812,17.3244743 47.3166018,17.4621344 C47.8683225,17.5997946 48.439068,17.6686246 49.0288384,17.6686246 C49.4283603,17.6686246 49.8564194,17.6365039 50.3130159,17.5722625 C50.7696123,17.5080211 51.1976714,17.384127 51.5971933,17.2005802 C51.9967152,17.0170333 52.3296501,16.7646564 52.595998,16.4434494 C52.8623459,16.1222424 52.9955198,15.7138507 52.9955198,15.2182742 C52.9955198,14.6859883 52.81954,14.2546532 52.4675802,13.9242689 C52.1156205,13.5938845 51.6542679,13.3185642 51.0835223,13.098308 C50.5127768,12.8780518 49.8659319,12.6853276 49.1429875,12.5201354 C48.4200432,12.3549433 47.6875864,12.1713964 46.9456172,11.9694949 C46.1846232,11.785948 45.442654,11.5611031 44.7197097,11.2949602 C43.9967654,11.0288173 43.3499204,10.6846669 42.7791749,10.2625092 C42.2084294,9.8403514 41.7470767,9.3126542 41.395117,8.6794176 C41.0431573,8.0461809 40.8671774,7.2798728 40.8671774,6.3804932 C40.8671774,5.3709856 41.0907194,4.4945493 41.5378034,3.7511846 C41.9848874,3.0078198 42.5699015,2.3883492 43.2928459,1.8927727 C44.0157902,1.3971962 44.8338588,1.0301025 45.7470516,0.7914916 C46.6602445,0.5528807 47.5734373,0.4335752 48.4866302,0.4335752 Z M88.153444,0.4335752 C89.218836,0.4335752 90.241422,0.548292 91.221202,0.7777256 C92.200981,1.0071592 93.071368,1.3788415 93.832362,1.8927727 C94.593356,2.4067039 95.197395,3.0628839 95.644479,3.8613127 C96.091563,4.6597415 96.315105,5.6279512 96.315105,6.7659416 L96.315105,6.7659416 L91.977439,6.7659416 C91.93939,6.1785917 91.810972,5.6921925 91.592186,5.3067442 C91.3734,4.9212958 91.083271,4.6184435 90.721799,4.3981872 C90.360327,4.177931 89.946537,4.0219162 89.480428,3.9301428 C89.014319,3.8383693 88.505404,3.7924826 87.953683,3.7924826 C87.592211,3.7924826 87.230739,3.829192 86.869267,3.9026107 C86.507795,3.9760295 86.179616,4.1045123 85.884731,4.2880591 C85.589846,4.471606 85.347279,4.7010395 85.15703,4.9763598 C84.966782,5.2516801 84.871658,5.6004191 84.871658,6.0225769 C84.871658,6.4080253 84.947757,6.7200549 85.099956,6.9586658 C85.252155,7.1972767 85.551796,7.417533 85.99888,7.6194345 C86.445964,7.821336 87.064272,8.0232376 87.853803,8.2251391 C88.643334,8.4270406 89.675432,8.6840062 90.950097,8.9960359 C91.330594,9.0694546 91.858534,9.2025261 92.533916,9.3952503 C93.209298,9.5879745 93.879924,9.8954155 94.545794,10.3175732 C95.211664,10.739731 95.787166,11.3041375 96.272299,12.0107929 C96.757433,12.7174483 97,13.6214166 97,14.7226977 C97,15.6220772 96.819264,16.4572154 96.457792,17.2281122 C96.09632,17.999009 95.558868,18.6643663 94.845436,19.2241842 C94.132004,19.7840021 93.247348,20.2199259 92.191469,20.5319555 C91.13559,20.8439852 89.913243,21 88.524429,21 C87.401963,21 86.31279,20.8669285 85.256911,20.6007856 C84.201032,20.3346427 83.268814,19.9170736 82.460258,19.3480783 C81.651702,18.7790831 81.009613,18.054073 80.533992,17.1730481 C80.05837,16.2920232 79.830072,15.2458062 79.849097,14.034397 L79.849097,14.034397 L84.186763,14.034397 C84.186763,14.6951656 84.310424,15.2549835 84.557748,15.7138507 C84.805071,16.1727178 85.133249,16.5444002 85.542284,16.8288978 C85.951318,17.1133954 86.431695,17.3244743 86.983416,17.4621344 C87.535137,17.5997946 88.105882,17.6686246 88.695653,17.6686246 C89.095174,17.6686246 89.523234,17.6365039 89.97983,17.5722625 C90.436426,17.5080211 90.864486,17.384127 91.264007,17.2005802 C91.663529,17.0170333 91.996464,16.7646564 92.262812,16.4434494 C92.52916,16.1222424 92.662334,15.7138507 92.662334,15.2182742 C92.662334,14.6859883 92.486354,14.2546532 92.134394,13.9242689 C91.782435,13.5938845 91.321082,13.3185642 90.750336,13.098308 C90.179591,12.8780518 89.532746,12.6853276 88.809802,12.5201354 C88.086857,12.3549433 87.354401,12.1713964 86.612431,11.9694949 C85.851437,11.785948 85.109468,11.5611031 84.386524,11.2949602 C83.66358,11.0288173 83.016735,10.6846669 82.445989,10.2625092 C81.875244,9.8403514 81.413891,9.3126542 81.061931,8.6794176 C80.709971,8.0461809 80.533992,7.2798728 80.533992,6.3804932 C80.533992,5.3709856 80.757534,4.4945493 81.204618,3.7511846 C81.651702,3.0078198 82.236716,2.3883492 82.95966,1.8927727 C83.682604,1.3971962 84.500673,1.0301025 85.413866,0.7914916 C86.327059,0.5528807 87.240251,0.4335752 88.153444,0.4335752 Z M10.016584,0 C11.1390502,0 12.1996856,0.1560148 13.1984903,0.4680445 C14.197295,0.7800741 15.091463,1.2343526 15.8809943,1.8308798 C16.6705256,2.4274071 17.3221268,3.1661832 17.8357977,4.0472081 C18.2923942,4.8303413 18.5986708,5.7149918 18.7546276,6.7011596 L18.8060651,7.0757311 L14.4683991,7.0757311 C14.3922997,6.5801546 14.2210761,6.1258762 13.9547281,5.7128958 C13.6883802,5.2999153 13.3554453,4.9374103 12.9559235,4.6253807 C12.5564016,4.313351 12.1045614,4.0701514 11.6004028,3.8957819 C11.0962443,3.7214124 10.5683047,3.6342277 10.016584,3.6342277 C9.0082669,3.6342277 8.1521486,3.8223632 7.4482291,4.1986342 C6.7443096,4.5749053 6.1735641,5.0796591 5.7359926,5.7128958 C5.298421,6.3461324 4.9797547,7.0665538 4.7799938,7.8741599 C4.5802329,8.6817661 4.4803524,9.5169043 4.4803524,10.3795745 C4.4803524,11.2055353 4.5802329,12.0085528 4.7799938,12.7886269 C4.9797547,13.568701 5.298421,14.2707677 5.7359926,14.894827 C6.1735641,15.5188863 6.7443096,16.0190515 7.4482291,16.3953225 C8.1521486,16.7715936 9.0082669,16.9597291 10.016584,16.9597291 C11.3863733,16.9597291 12.4565211,16.555926 13.2270276,15.7483199 C13.9382643,15.0028373 14.3941853,14.0384018 14.5947905,12.8550133 L14.6396228,12.5546047 L18.9772888,12.5546047 C18.8631397,13.7843686 18.5682545,14.894827 18.0926332,15.88598 C17.6170119,16.877133 16.9891919,17.7214486 16.209173,18.4189266 C15.4291541,19.1164046 14.5159612,19.6486905 13.4695944,20.0157842 C12.4232276,20.3828779 11.2722242,20.5664248 10.016584,20.5664248 C9.6246533,20.5664248 9.2426292,20.5499162 8.8705117,20.516899 L0.0637426,11.6629546 C0.0212475,11.2441295 0,10.8163362 0,10.3795745 C0,8.9111997 0.2282982,7.5483643 0.6848946,6.2910684 C1.1414911,5.0337724 1.7978484,3.93708 2.6539667,3.000991 C3.510085,2.0649021 4.561208,1.3307147 5.8073357,0.7984288 C7.0534635,0.2661429 8.4565462,0 10.016584,0 Z M32.0776963,0.9016197 L39.6971491,20.5594876 L35.045573,20.5594876 L33.5045601,16.1818951 L25.8851073,16.1818951 L24.2870198,20.5594876 L19.7781301,20.5594876 L27.4831948,0.9016197 L32.0776963,0.9016197 Z M29.7661769,5.7472566 L29.7091023,5.7472566 L27.0551356,12.9606479 L32.3345317,12.9606479 L29.7661769,5.7472566 Z" id="Combined-Shape" fill="#FFFFFF" fill-rule="nonzero"></path>
    </g>
</svg>