<?xml version="1.0" encoding="UTF-8"?>
<svg width="97px" height="21px" viewBox="0 0 97 21" version="1.1" xmlns="http://www.w3.org/2000/svg" xmlns:xlink="http://www.w3.org/1999/xlink">
    <!-- Generator: Sketch 62 (91390) - https://sketch.com -->
    <title>Combined Shape</title>
    <desc>Created with Sketch.</desc>
    <g id="Website" stroke="none" stroke-width="1" fill="none" fill-rule="evenodd">
        <g id="homepage-1680" transform="translate(-41.000000, -32.000000)" fill="#393D4C">
            <g id="Group-16" transform="translate(0.000000, 0.000000)">
                <path d="M105.381893,32.9016197 L105.381893,45.1258401 C105.381893,45.6581259 105.429455,46.1812345 105.524579,46.6951656 C105.619704,47.2090968 105.819465,47.6633753 106.123862,48.058001 C106.42826,48.4526267 106.851563,48.7738337 107.393771,49.021622 C107.935979,49.2694102 108.66368,49.3933044 109.576873,49.3933044 C111.17496,49.3933044 112.278402,49.049154 112.887197,48.3608533 C113.495992,47.6725526 113.80039,46.5942149 113.80039,45.1258401 L113.80039,45.1258401 L113.80039,32.9016197 L118.280742,32.9016197 L118.280742,45.1258401 C118.280742,47.7872694 117.510236,49.7649867 115.969223,51.058992 C114.42821,52.3529973 112.297426,53 109.576873,53 C106.818269,53 104.68273,52.357586 103.170254,51.0727581 C101.657779,49.7879301 100.901541,47.8056241 100.901541,45.1258401 L100.901541,45.1258401 L100.901541,32.9016197 L105.381893,32.9016197 Z M89.4866302,32.4335752 C90.5520218,32.4335752 91.5746076,32.548292 92.5543874,32.7777256 C93.5341672,33.0071592 94.4045541,33.3788415 95.1655482,33.8927727 C95.9265422,34.4067039 96.5305812,35.0628839 96.9776652,35.8613127 C97.4247492,36.6597415 97.6482912,37.6279512 97.6482912,38.7659416 L97.6482912,38.7659416 L93.3106252,38.7659416 C93.2725755,38.1785917 93.1441578,37.6921925 92.925372,37.3067442 C92.7065862,36.9212958 92.4164572,36.6184435 92.054985,36.3981872 C91.6935129,36.177931 91.2797224,36.0219162 90.8136135,35.9301428 C90.3475047,35.8383693 89.8385899,35.7924826 89.2868692,35.7924826 C88.9253971,35.7924826 88.5639249,35.829192 88.2024527,35.9026107 C87.8409806,35.9760295 87.5128019,36.1045123 87.2179167,36.2880591 C86.9230315,36.471606 86.6804647,36.7010395 86.4902162,36.9763598 C86.2999676,37.2516801 86.2048434,37.6004191 86.2048434,38.0225769 C86.2048434,38.4080253 86.2809428,38.7200549 86.4331416,38.9586658 C86.5853404,39.1972767 86.8849818,39.417533 87.3320658,39.6194345 C87.7791498,39.821336 88.3974575,40.0232376 89.1869888,40.2251391 C89.9765201,40.4270406 91.0086182,40.6840062 92.2832833,40.9960359 C92.6637803,41.0694546 93.1917199,41.2025261 93.8671021,41.3952503 C94.5424843,41.5879745 95.2131103,41.8954155 95.8789801,42.3175732 C96.5448499,42.739731 97.1203516,43.3041375 97.6054853,44.0107929 C98.090619,44.7174483 98.3331858,45.6214166 98.3331858,46.7226977 C98.3331858,47.6220772 98.1524498,48.4572154 97.7909776,49.2281122 C97.4295054,49.999009 96.8920534,50.6643663 96.1786215,51.2241842 C95.4651896,51.7840021 94.580534,52.2199259 93.5246548,52.5319555 C92.4687756,52.8439852 91.2464289,53 89.8576148,53 C88.7351486,53 87.6459758,52.8669285 86.5900966,52.6007856 C85.5342174,52.3346427 84.6019997,51.9170736 83.7934435,51.3480783 C82.9848874,50.7790831 82.3427987,50.054073 81.8671774,49.1730481 C81.3915561,48.2920232 81.1632579,47.2458062 81.1822828,46.034397 L81.1822828,46.034397 L85.5199488,46.034397 C85.5199488,46.6951656 85.6436103,47.2549835 85.8909334,47.7138507 C86.1382564,48.1727178 86.4664351,48.5444002 86.8754694,48.8288978 C87.2845037,49.1133954 87.7648812,49.3244743 88.3166018,49.4621344 C88.8683225,49.5997946 89.439068,49.6686246 90.0288384,49.6686246 C90.4283603,49.6686246 90.8564194,49.6365039 91.3130159,49.5722625 C91.7696123,49.5080211 92.1976714,49.384127 92.5971933,49.2005802 C92.9967152,49.0170333 93.3296501,48.7646564 93.595998,48.4434494 C93.8623459,48.1222424 93.9955198,47.7138507 93.9955198,47.2182742 C93.9955198,46.6859883 93.81954,46.2546532 93.4675802,45.9242689 C93.1156205,45.5938845 92.6542679,45.3185642 92.0835223,45.098308 C91.5127768,44.8780518 90.8659319,44.6853276 90.1429875,44.5201354 C89.4200432,44.3549433 88.6875864,44.1713964 87.9456172,43.9694949 C87.1846232,43.785948 86.442654,43.5611031 85.7197097,43.2949602 C84.9967654,43.0288173 84.3499204,42.6846669 83.7791749,42.2625092 C83.2084294,41.8403514 82.7470767,41.3126542 82.395117,40.6794176 C82.0431573,40.0461809 81.8671774,39.2798728 81.8671774,38.3804932 C81.8671774,37.3709856 82.0907194,36.4945493 82.5378034,35.7511846 C82.9848874,35.0078198 83.5699015,34.3883492 84.2928459,33.8927727 C85.0157902,33.3971962 85.8338588,33.0301025 86.7470516,32.7914916 C87.6602445,32.5528807 88.5734373,32.4335752 89.4866302,32.4335752 Z M129.153444,32.4335752 C130.218836,32.4335752 131.241422,32.548292 132.221202,32.7777256 C133.200981,33.0071592 134.071368,33.3788415 134.832362,33.8927727 C135.593356,34.4067039 136.197395,35.0628839 136.644479,35.8613127 C137.091563,36.6597415 137.315105,37.6279512 137.315105,38.7659416 L137.315105,38.7659416 L132.977439,38.7659416 C132.93939,38.1785917 132.810972,37.6921925 132.592186,37.3067442 C132.3734,36.9212958 132.083271,36.6184435 131.721799,36.3981872 C131.360327,36.177931 130.946537,36.0219162 130.480428,35.9301428 C130.014319,35.8383693 129.505404,35.7924826 128.953683,35.7924826 C128.592211,35.7924826 128.230739,35.829192 127.869267,35.9026107 C127.507795,35.9760295 127.179616,36.1045123 126.884731,36.2880591 C126.589846,36.471606 126.347279,36.7010395 126.15703,36.9763598 C125.966782,37.2516801 125.871658,37.6004191 125.871658,38.0225769 C125.871658,38.4080253 125.947757,38.7200549 126.099956,38.9586658 C126.252155,39.1972767 126.551796,39.417533 126.99888,39.6194345 C127.445964,39.821336 128.064272,40.0232376 128.853803,40.2251391 C129.643334,40.4270406 130.675432,40.6840062 131.950097,40.9960359 C132.330594,41.0694546 132.858534,41.2025261 133.533916,41.3952503 C134.209298,41.5879745 134.879924,41.8954155 135.545794,42.3175732 C136.211664,42.739731 136.787166,43.3041375 137.272299,44.0107929 C137.757433,44.7174483 138,45.6214166 138,46.7226977 C138,47.6220772 137.819264,48.4572154 137.457792,49.2281122 C137.09632,49.999009 136.558868,50.6643663 135.845436,51.2241842 C135.132004,51.7840021 134.247348,52.2199259 133.191469,52.5319555 C132.13559,52.8439852 130.913243,53 129.524429,53 C128.401963,53 127.31279,52.8669285 126.256911,52.6007856 C125.201032,52.3346427 124.268814,51.9170736 123.460258,51.3480783 C122.651702,50.7790831 122.009613,50.054073 121.533992,49.1730481 C121.05837,48.2920232 120.830072,47.2458062 120.849097,46.034397 L120.849097,46.034397 L125.186763,46.034397 C125.186763,46.6951656 125.310424,47.2549835 125.557748,47.7138507 C125.805071,48.1727178 126.133249,48.5444002 126.542284,48.8288978 C126.951318,49.1133954 127.431695,49.3244743 127.983416,49.4621344 C128.535137,49.5997946 129.105882,49.6686246 129.695653,49.6686246 C130.095174,49.6686246 130.523234,49.6365039 130.97983,49.5722625 C131.436426,49.5080211 131.864486,49.384127 132.264007,49.2005802 C132.663529,49.0170333 132.996464,48.7646564 133.262812,48.4434494 C133.52916,48.1222424 133.662334,47.7138507 133.662334,47.2182742 C133.662334,46.6859883 133.486354,46.2546532 133.134394,45.9242689 C132.782435,45.5938845 132.321082,45.3185642 131.750336,45.098308 C131.179591,44.8780518 130.532746,44.6853276 129.809802,44.5201354 C129.086857,44.3549433 128.354401,44.1713964 127.612431,43.9694949 C126.851437,43.785948 126.109468,43.5611031 125.386524,43.2949602 C124.66358,43.0288173 124.016735,42.6846669 123.445989,42.2625092 C122.875244,41.8403514 122.413891,41.3126542 122.061931,40.6794176 C121.709971,40.0461809 121.533992,39.2798728 121.533992,38.3804932 C121.533992,37.3709856 121.757534,36.4945493 122.204618,35.7511846 C122.651702,35.0078198 123.236716,34.3883492 123.95966,33.8927727 C124.682604,33.3971962 125.500673,33.0301025 126.413866,32.7914916 C127.327059,32.5528807 128.240251,32.4335752 129.153444,32.4335752 Z M51.016584,32 C52.1390502,32 53.1996856,32.1560148 54.1984903,32.4680445 C55.197295,32.7800741 56.091463,33.2343526 56.8809943,33.8308798 C57.6705256,34.4274071 58.3221268,35.1661832 58.8357977,36.0472081 C59.2923942,36.8303413 59.5986708,37.7149918 59.7546276,38.7011596 L59.8060651,39.0757311 L55.4683991,39.0757311 C55.3922997,38.5801546 55.2210761,38.1258762 54.9547281,37.7128958 C54.6883802,37.2999153 54.3554453,36.9374103 53.9559235,36.6253807 C53.5564016,36.313351 53.1045614,36.0701514 52.6004028,35.8957819 C52.0962443,35.7214124 51.5683047,35.6342277 51.016584,35.6342277 C50.0082669,35.6342277 49.1521486,35.8223632 48.4482291,36.1986342 C47.7443096,36.5749053 47.1735641,37.0796591 46.7359926,37.7128958 C46.298421,38.3461324 45.9797547,39.0665538 45.7799938,39.8741599 C45.5802329,40.6817661 45.4803524,41.5169043 45.4803524,42.3795745 C45.4803524,43.2055353 45.5802329,44.0085528 45.7799938,44.7886269 C45.9797547,45.568701 46.298421,46.2707677 46.7359926,46.894827 C47.1735641,47.5188863 47.7443096,48.0190515 48.4482291,48.3953225 C49.1521486,48.7715936 50.0082669,48.9597291 51.016584,48.9597291 C52.3863733,48.9597291 53.4565211,48.555926 54.2270276,47.7483199 C54.9382643,47.0028373 55.3941853,46.0384018 55.5947905,44.8550133 L55.6396228,44.5546047 L59.9772888,44.5546047 C59.8631397,45.7843686 59.5682545,46.894827 59.0926332,47.88598 C58.6170119,48.877133 57.9891919,49.7214486 57.209173,50.4189266 C56.4291541,51.1164046 55.5159612,51.6486905 54.4695944,52.0157842 C53.4232276,52.3828779 52.2722242,52.5664248 51.016584,52.5664248 C50.6246533,52.5664248 50.2426292,52.5499162 49.8705117,52.516899 L41.0637426,43.6629546 C41.0212475,43.2441295 41,42.8163362 41,42.3795745 C41,40.9111997 41.2282982,39.5483643 41.6848946,38.2910684 C42.1414911,37.0337724 42.7978484,35.93708 43.6539667,35.000991 C44.510085,34.0649021 45.561208,33.3307147 46.8073357,32.7984288 C48.0534635,32.2661429 49.4565462,32 51.016584,32 Z M73.0776963,32.9016197 L80.6971491,52.5594876 L76.045573,52.5594876 L74.5045601,48.1818951 L66.8851073,48.1818951 L65.2870198,52.5594876 L60.7781301,52.5594876 L68.4831948,32.9016197 L73.0776963,32.9016197 Z M70.7661769,37.7472566 L70.7091023,37.7472566 L68.0551356,44.9606479 L73.3345317,44.9606479 L70.7661769,37.7472566 Z" id="Combined-Shape"></path>
            </g>
        </g>
    </g>
</svg>