<?xml version="1.0" encoding="UTF-8"?>
<svg width="38px" height="33px" viewBox="0 0 38 33" version="1.1" xmlns="http://www.w3.org/2000/svg" xmlns:xlink="http://www.w3.org/1999/xlink">
    <!-- Generator: Sketch 63.1 (92452) - https://sketch.com -->
    <title>ico-sight</title>
    <desc>Created with Sketch.</desc>
    <g id="Page-1" stroke="none" stroke-width="1" fill="none" fill-rule="evenodd">
        <g id="ico-sight" fill="#D7D8DB" fill-rule="nonzero">
            <path d="M37.7608672,24.772957 L32.6938789,5.70653125 C32.4557852,4.76506641 31.8333867,3.91466797 30.929625,3.28507031 C30.829875,2.40038281 30.3285273,1.57210156 29.5180586,0.9749375 C28.6973477,0.370128906 27.6240703,0.037109375 26.4960938,0.037109375 C25.3681172,0.037109375 24.2948398,0.370128906 23.4740547,0.9749375 C22.5645781,1.64505859 22.0429688,2.60596875 22.0429688,3.61133594 C22.0429688,3.96676953 22.1075391,4.31819531 22.2325977,4.65388672 C21.8686289,5.24845312 21.671875,5.90855469 21.671875,6.58394531 L21.671875,7.83007812 C20.8879766,7.49297656 19.961875,7.31054688 19,7.31054688 C18.038125,7.31054688 17.1120234,7.49297656 16.328125,7.83007812 L16.328125,6.58394531 C16.328125,5.90855469 16.1313711,5.24845313 15.7674023,4.6538125 C15.8924609,4.31819531 15.9570312,3.96676953 15.9570312,3.61133594 C15.9570312,2.60604297 15.4354219,1.64505859 14.5259453,0.9749375 C13.7051602,0.370128906 12.6318828,0.037109375 11.5039062,0.037109375 C10.3759297,0.037109375 9.30265234,0.370128906 8.48186719,0.9749375 C7.67139844,1.57210156 7.17005078,2.40045703 7.07030078,3.28507031 C6.16653906,3.91474219 5.54414062,4.76506641 5.30604688,5.70653125 L0.239132812,24.772957 C0.120753906,25.1453125 0,25.9827227 0,26.3105469 C0,28.0609961 0.894261719,29.6840117 2.51801953,30.880418 C4.03972656,32.0016406 6.04482031,32.6191406 8.1640625,32.6191406 C10.2833047,32.6191406 12.2883984,32.0016406 13.8101055,30.880418 C15.4338633,29.6840117 16.328125,28.0609961 16.328125,26.3105469 L16.328125,23.0426211 C16.9379805,23.8545742 17.9086133,24.3808594 19,24.3808594 C20.0913867,24.3808594 21.0620195,23.8545742 21.671875,23.0426211 L21.671875,26.3105469 C21.671875,28.0609961 22.5661367,29.6840117 24.1898945,30.880418 C25.7116016,32.0016406 27.7166953,32.6191406 29.8359375,32.6191406 C31.9551797,32.6191406 33.9602734,32.0016406 35.4819805,30.880418 C37.1057383,29.6840117 38,28.0609961 38,26.3105469 C38,25.9827227 37.8792461,25.1453125 37.7608672,24.772957 Z M12.4893086,29.0879609 C11.3476016,29.9292305 9.81142188,30.3925781 8.1640625,30.3925781 C6.51670313,30.3925781 4.98052344,29.9292305 3.83881641,29.0879609 C2.79916016,28.321875 2.2265625,27.3355078 2.2265625,26.3105469 C2.2265625,24.0592695 5.17059766,22.2285156 8.1640625,22.2285156 C9.81142188,22.2285156 11.3475273,22.6918633 12.4893086,23.5331328 C13.5289648,24.2992187 14.1015625,25.2855859 14.1015625,26.3105469 C14.1015625,27.3355078 13.5289648,28.321875 12.4893086,29.0879609 Z M19,22.1542969 C18.3861367,22.1542969 17.8867188,21.6548789 17.8867188,21.0410156 C17.8867188,20.4271523 18.3861367,19.9277344 19,19.9277344 C19.6138633,19.9277344 20.1132812,20.4271523 20.1132812,21.0410156 C20.1132812,21.6548789 19.6138633,22.1542969 19,22.1542969 Z M34.1611836,29.0879609 C33.0194766,29.9292305 31.4832969,30.3925781 29.8359375,30.3925781 C28.1885781,30.3925781 26.6523984,29.9292305 25.5106914,29.0879609 C24.4710352,28.321875 23.8984375,27.3355078 23.8984375,26.3105469 C23.8984375,25.2855859 24.4710352,24.2992187 25.5106914,23.5331328 C26.6524727,22.6918633 28.1885781,22.2285156 29.8359375,22.2285156 C32.8294023,22.2285156 35.7734375,24.0592695 35.7734375,26.3105469 C35.7734375,27.3355078 35.2008398,28.321875 34.1611836,29.0879609 Z" id="Shape"></path>
        </g>
    </g>
</svg>