<?xml version="1.0" encoding="UTF-8"?>
<svg width="43px" height="37px" viewBox="0 0 43 37" version="1.1" xmlns="http://www.w3.org/2000/svg" xmlns:xlink="http://www.w3.org/1999/xlink">
    <!-- Generator: Sketch 63.1 (92452) - https://sketch.com -->
    <title>ico-price</title>
    <desc>Created with Sketch.</desc>
    <g id="Page-1" stroke="none" stroke-width="1" fill="none" fill-rule="evenodd">
        <g id="ico-price" transform="translate(21.500000, 18.500000) scale(-1, 1) translate(-21.500000, -18.500000) " fill="#D7D8DB" fill-rule="nonzero">
            <path d="M39.966805,15.6048963 L39.7384232,15.6048963 L39.7384232,13.3210788 C39.7384232,10.6718506 37.7743402,8.47938589 35.1707884,8.1139751 L35.1707884,5.32771784 C35.1707884,2.45010788 32.7956183,0.0749377593 29.9180083,0.0749377593 L5.57251452,0.0749377593 C2.55787552,0.0749377593 0.0456763485,2.49578423 0,5.55609959 L0,31.3632365 C0,34.2408465 2.37517012,36.6160166 5.25278008,36.6160166 L34.4856432,36.6160166 C37.3632531,36.6160166 39.7384232,34.2408465 39.7384232,31.3632365 L39.7384232,28.8510373 L39.966805,28.8510373 C41.6111535,28.8510373 42.9357676,27.5264232 42.9357676,25.8820747 L42.9357676,18.5738589 C42.9357676,16.9295104 41.6111535,15.6048963 39.966805,15.6048963 Z M3.1973444,5.64745228 C3.1973444,4.32283817 4.29357676,3.27228216 5.57251452,3.27228216 L29.872332,3.27228216 C31.0142407,3.27228216 31.9277676,4.18580913 31.9277676,5.32771784 L31.9277676,8.06829876 L5.57251452,8.06829876 C4.29357676,8.06829876 3.1973444,6.97206639 3.1973444,5.64745228 Z M39.7384232,25.6536929 L32.2018257,25.6536929 C30.3290954,25.6536929 28.7760996,24.1006971 28.7760996,22.2279668 C28.7760996,20.3552365 30.3290954,18.8022407 32.2018257,18.8022407 L39.7384232,18.8022407 L39.7384232,25.6536929 Z" id="Shape"></path>
        </g>
    </g>
</svg>