<?xml version="1.0" encoding="utf-8"?>
<!-- Generator: Adobe Illustrator 16.0.0, SVG Export Plug-In . SVG Version: 6.00 Build 0)  -->
<!DOCTYPE svg PUBLIC "-//W3C//DTD SVG 1.0//EN" "http://www.w3.org/TR/2001/REC-SVG-20010904/DTD/svg10.dtd">
<svg version="1.0" xmlns="http://www.w3.org/2000/svg" xmlns:xlink="http://www.w3.org/1999/xlink" x="0px" y="0px" width="1440px"
	 height="1235px" viewBox="0 0 1440 1235" enable-background="new 0 0 1440 1235" xml:space="preserve">
<g id="Rectangle_1_1_" enable-background="new    ">
	<g id="Rectangle_1">
		<g>
			<rect fill="#F8F8F8" width="1440" height="1235"/>
		</g>
	</g>
</g>
<g id="Ellipse_2_copy_33_1_" opacity="0.4392" enable-background="new    ">
	<g id="Ellipse_2_copy_33">
		<g>
			<path fill="#C7C7C7" d="M1388.826,678.553c0-4.977,2.892-9.266,7.08-11.313l-0.221-0.56c-4.41,2.137-7.46,6.644-7.46,11.873
				c0,0.203,0.021,0.399,0.03,0.601l0.119-0.015l0.249,0.735l-0.328,0.04c0.293,2.859,1.509,5.439,3.332,7.463l0.415-0.436
				C1390.049,684.712,1388.826,681.779,1388.826,678.553z M1421.308,307.402l-53.423-250.925c-0.243,0.088-0.491,0.165-0.736,0.25
				l53.373,250.691c0.234-0.005,0.467-0.018,0.703-0.018C1421.252,307.4,1421.279,307.402,1421.308,307.402z M1323.026,485.073
				l-0.118-0.574c-10.773,0.655-19.315,9.574-19.315,20.513c0,7.402,3.922,13.872,9.788,17.497l0.235-0.266l0.665,0.402
				l-0.236,0.267c2.99,1.696,6.44,2.676,10.124,2.676c5.315,0,10.145-2.033,13.796-5.342l-0.366-0.929
				c-3.514,3.3-8.229,5.336-13.43,5.336c-10.848,0-19.641-8.794-19.641-19.642s8.793-19.641,19.641-19.641
				c10.847,0,19.641,8.793,19.641,19.641c0,5.403-2.184,10.295-5.714,13.846l0.114-0.072l0.359,0.911
				c3.807-3.734,6.175-8.931,6.175-14.685c0-7.92-4.48-14.784-11.039-18.224l-0.293,0.506l-0.708-0.318l0.304-0.523
				c-2.682-1.279-5.67-2.017-8.839-2.017c-0.168,0-0.33,0.021-0.496,0.025l0.059,0.287L1323.026,485.073z M1403.755,5.353
				c0-1.807-0.093-3.591-0.265-5.353h-2.48c0.181,1.76,0.274,3.545,0.274,5.353c0,22.339-14.119,41.378-33.919,48.686l0.52,2.439
				C1388.804,48.914,1403.755,28.881,1403.755,5.353z M1401.283,859c-0.204-0.047-0.406-0.096-0.612-0.137v0.287L1401.283,859z
				 M1063.006,50.583c-0.108-0.235-0.216-0.471-0.319-0.708l-169.921,68.637c0.103,0.237,0.186,0.484,0.278,0.726L1063.006,50.583z
				 M1109.007,486.443l-4.829-0.471l0.06,0.773l4.892,0.478l29.925,191.077l0.755-0.182L1109.924,487.3l193.538,18.893l-0.06-0.774
				l-193.601-18.898l-22.611-144.376c-0.23,0.158-0.476,0.296-0.714,0.444L1109.007,486.443z M1371.529,876.561l-0.344-0.246
				c-0.08,0.257-0.149,0.518-0.221,0.777l0.253,0.181L1371.529,876.561z M1367.363,54.027l-0.739,0.237l0.006,0.029
				c0.245-0.086,0.493-0.166,0.735-0.256L1367.363,54.027z M1395.686,666.68c0.229-0.111,0.457-0.225,0.693-0.323l-57.81-146.66
				c-0.194,0.19-0.403,0.366-0.604,0.549L1395.686,666.68z M1276.893,808.981l115.248-121.051c-0.179-0.177-0.344-0.367-0.513-0.554
				l-115.354,121.162l-109.454-78.159c-0.141,0.211-0.285,0.418-0.43,0.626l109.354,78.089l-40.972,43.034
				c0.194,0.16,0.375,0.335,0.558,0.507l41.033-43.099l93.549,66.803c0.075-0.257,0.155-0.511,0.238-0.765L1276.893,808.981z
				 M874.219,146.671c11.148,0,20.188-9.039,20.188-20.188c0-2.557-0.495-4.993-1.362-7.245l-0.851,0.343
				c0.824,2.146,1.295,4.466,1.295,6.901c0,10.643-8.627,19.271-19.27,19.271s-19.271-8.628-19.271-19.271
				s8.628-19.271,19.271-19.271c7.933,0,14.74,4.796,17.695,11.645l0.852-0.344c-3.092-7.185-10.229-12.218-18.547-12.218
				c-11.149,0-20.188,9.039-20.188,20.188S863.069,146.671,874.219,146.671z M1401.426,665.953c6.958,0,12.6,5.641,12.6,12.6
				s-5.642,12.601-12.6,12.601c-3.461,0-6.595-1.397-8.872-3.656l-0.413,0.434c2.213,2.19,5.198,3.59,8.509,3.783v-0.231
				l0.754-0.186v0.455c0.008,0,0.015,0.001,0.022,0.001c7.289,0,13.199-5.91,13.199-13.2s-5.91-13.2-13.199-13.2
				c-1.788,0-3.492,0.359-5.047,1.004l0.22,0.559C1398.086,666.297,1399.715,665.953,1401.426,665.953z M1401.283,859
				c11.386,2.584,19.889,12.761,19.889,24.93c0,14.122-11.448,25.57-25.57,25.57c-14.121,0-25.569-11.448-25.569-25.57
				c0-2.369,0.329-4.661,0.933-6.838l-1.053-0.752c-0.71,2.407-1.098,4.953-1.098,7.59c0,14.795,11.993,26.788,26.787,26.788
				c14.795,0,26.788-11.993,26.788-26.788c0-12.794-8.972-23.486-20.965-26.146v1.181L1401.283,859z M8.913,0H6.679
				C3.933,2.783,1.666,6.036,0,9.626v4.231C1.753,8.491,4.855,3.737,8.913,0z M891.66,118.959l0.297,0.718l0.236-0.096
				c-0.093-0.242-0.177-0.487-0.279-0.725L891.66,118.959z M1370.15,875.575l1.035,0.739c3.241-10.403,12.946-17.956,24.416-17.956
				c1.736,0,3.431,0.175,5.069,0.505v-1.236c-1.643-0.314-3.336-0.485-5.069-0.485
				C1383.726,857.142,1373.661,864.873,1370.15,875.575z M1421.225,308.936c7.007,0,13.486,2.243,18.775,6.039v-1.873
				c-5.349-3.583-11.775-5.683-18.692-5.699l0.166,0.78l-0.739,0.236l-0.213-1.001c-16.075,0.33-29.391,11.882-32.421,27.146
				l0.034,0.001l0.161,0.759l-0.329-0.01c-0.334,1.905-0.518,3.862-0.518,5.863c0,18.654,15.122,33.776,33.775,33.776
				c6.949,0,13.406-2.101,18.775-5.699v-1.876c-5.289,3.797-11.769,6.04-18.775,6.04c-17.806,0-32.24-14.436-32.24-32.241
				C1388.984,323.37,1403.419,308.936,1421.225,308.936z M1164.791,690.037l0.665,0.401l148.589-167.526
				c-0.227-0.128-0.444-0.267-0.664-0.403L1164.791,690.037z M1337.552,519.198l0.047,0.119c0.164-0.154,0.338-0.299,0.497-0.459
				L1337.552,519.198z M1400.671,857.627c0.253,0.049,0.504,0.102,0.754,0.157l-0.021-166.032c-0.254-0.001-0.503-0.023-0.754-0.038
				L1400.671,857.627z M695.223,963.92l0.016,0.776l205.793-0.028v-0.006c-0.055-0.256-0.109-0.513-0.161-0.771L695.223,963.92z
				 M996.505,921.591c0.165,0.222,0.319,0.45,0.48,0.675l123.928-182.258c-0.218-0.141-0.438-0.277-0.651-0.422L996.505,921.591z
				 M617.097,826.997l0.218,0.517c4.936-1.911,8.441-6.691,8.441-12.302c0-7.29-5.91-13.2-13.2-13.2s-13.199,5.91-13.199,13.2
				s5.909,13.2,13.199,13.2c1.409,0,2.765-0.226,4.038-0.635l-0.154-0.365L617.097,826.997z M599.956,815.212
				c0-6.959,5.642-12.601,12.6-12.601c6.959,0,12.6,5.642,12.6,12.601s-5.641,12.6-12.6,12.6
				C605.598,827.812,599.956,822.171,599.956,815.212z M387.853,848.453l-0.288,0.722L628.05,953.421
				c0.077-0.249,0.165-0.493,0.247-0.739L387.853,848.453z M536.608,75.911L362.62,0h-1.941l175.611,76.618
				C536.395,76.382,536.498,76.145,536.608,75.911z M536.812,76.847l-0.523-0.229c-1.878,4.204-2.931,8.856-2.931,13.758
				c0,9.121,3.621,17.391,9.496,23.468l0.359-0.28l0.483,0.608l-0.296,0.231c6.1,6.026,14.48,9.75,23.732,9.75
				c0.204,0,0.405-0.012,0.607-0.016l-0.198-1.336l0.766-0.132l0.215,1.448c18.008-0.73,32.386-15.554,32.386-33.742
				c0-18.653-15.122-33.776-33.775-33.776c-13.477,0-25.106,7.896-30.525,19.312l0.509,0.222L536.812,76.847z M567.134,58.136
				c17.806,0,32.24,14.435,32.24,32.24c0,17.807-14.435,32.241-32.24,32.241s-32.24-14.435-32.24-32.241
				C534.894,72.57,549.328,58.136,567.134,58.136z M683.278,939.072l0.835-0.418c-6.116-5.763-14.352-9.302-23.418-9.302
				c-0.141,0-0.279,0.009-0.419,0.011l0.418,0.99l-0.657,0.414l-0.583-1.384c-14.535,0.521-26.75,10.117-31.156,23.298l0.386,0.167
				l-0.288,0.722l-0.345-0.149c-0.986,3.191-1.518,6.582-1.518,10.097c0,18.869,15.296,34.165,34.163,34.165
				c18.868,0,34.164-15.296,34.164-34.165c0-9.505-3.885-18.101-10.149-24.294l-1.072,0.536L683.278,939.072z M693.307,963.518
				c0,18.011-14.601,32.611-32.611,32.611c-18.01,0-32.61-14.601-32.61-32.611s14.601-32.611,32.61-32.611
				C678.706,930.906,693.307,945.507,693.307,963.518z M617.314,827.514c-0.238,0.092-0.476,0.186-0.721,0.264l42.86,101.606
				c0.273-0.01,0.548-0.018,0.823-0.021L617.314,827.514z M996.156,922.104l0.349-0.513c-9.759-13.189-25.423-21.744-43.089-21.744
				c-29.589,0-53.575,23.987-53.575,53.577c0,3.583,0.358,7.082,1.029,10.468h0.145l0.017,0.771
				c5.165,24.192,26.652,42.338,52.385,42.338c29.588,0,53.574-23.987,53.574-53.576c0-11.626-3.715-22.377-10.005-31.158
				l-0.181,0.266L996.156,922.104z M1004.556,953.424c0,28.244-22.896,51.141-51.14,51.141c-28.244,0-51.14-22.896-51.14-51.141
				c0-28.245,22.896-51.142,51.14-51.142C981.659,902.282,1004.556,925.179,1004.556,953.424z M1093.433,315.161l153.647-92.519
				l-0.424-0.651l-153.647,92.52L1093.433,315.161z M442.27,192.37l0.483,0.607l100.648-78.574c-0.186-0.184-0.366-0.372-0.547-0.56
				L442.27,192.37z M1234.605,852.305l0.167-0.176c-2.081-1.719-4.749-2.752-7.659-2.752c-6.646,0-12.035,5.388-12.035,12.035
				c0,6.646,5.389,12.035,12.035,12.035s12.035-5.389,12.035-12.035c0-3.466-1.474-6.58-3.818-8.776l-0.049,0.052L1234.605,852.305z
				 M1238.601,861.412c0,6.345-5.143,11.488-11.487,11.488s-11.488-5.144-11.488-11.488s5.144-11.488,11.488-11.488
				S1238.601,855.067,1238.601,861.412z M429.202,189.041L319.203,0h-0.897l110.233,189.443L429.202,189.041z M1401.819,369.308
				l-0.708-0.318l-68.104,117.463c0.232,0.111,0.47,0.217,0.697,0.336L1401.819,369.308z M294.113,0h-0.838l-60.382,148.271
				l0.722,0.287L294.113,0z M912.606,698l0.666,0.398l172.886-200.26c-0.243-0.105-0.479-0.224-0.714-0.344L912.606,698z
				 M247.079,425.323l-0.188-0.753L75.026,458.135l0.188,0.754L247.079,425.323z M1392.092,686.89l-0.049,0.052
				c0.168,0.188,0.332,0.378,0.511,0.556l0.215-0.226L1392.092,686.89z M1121.869,738.602l-0.648-0.427l-0.105,0.156
				c0.214,0.145,0.434,0.281,0.651,0.421L1121.869,738.602z M1064.088,50.146l-1.082,0.437
				c5.495,11.805,17.456,19.993,31.335,19.993c19.082,0,34.552-15.47,34.552-34.553c0-2.147-0.206-4.246-0.581-6.285l-0.016,0.002
				l-0.097-0.633c-3.203-15.769-17.145-27.638-33.858-27.638c-19.082,0-34.552,15.47-34.552,34.553c0,4.928,1.038,9.61,2.897,13.852
				l1.104-0.446L1064.088,50.146z M1061.359,36.023c0-18.216,14.767-32.982,32.981-32.982s32.981,14.767,32.981,32.982
				s-14.767,32.982-32.981,32.982S1061.359,54.239,1061.359,36.023z M1294.989,5.803l-0.117-0.768l-166.693,23.938l0.021,0.135
				c0.042,0.208,0.074,0.42,0.112,0.63L1294.989,5.803z M1166.088,729.857l0.731,0.522c3.507-5.284,5.555-11.621,5.555-18.438
				c0-18.44-14.948-33.389-33.388-33.389c-18.402,0-33.323,14.888-33.384,33.276l0.897,0.003l0.154,0.761l-1.038-0.003
				c0.093,4.838,1.209,9.424,3.149,13.548l1.066-0.533l0.36,0.688l-1.086,0.543c2.571,5.147,6.427,9.541,11.155,12.75l0.854-1.255
				c-8.447-5.732-13.998-15.412-13.998-26.39c0-17.602,14.269-31.871,31.869-31.871c17.602,0,31.869,14.27,31.869,31.871
				s-14.268,31.87-31.869,31.87c-6.346,0-12.253-1.862-17.22-5.06l-0.854,1.256c5.21,3.362,11.411,5.321,18.073,5.321
				c11.35,0,21.371-5.668,27.403-14.323l-0.612-0.438L1166.088,729.857z M684.113,938.654c0.2,0.188,0.401,0.376,0.597,0.569
				l424.396-212.388c-0.115-0.231-0.23-0.463-0.341-0.698L684.113,938.654z M1171.975,705.185l0.25,0.735l216.071-26.006
				c-0.026-0.251-0.028-0.507-0.04-0.761L1171.975,705.185z M1120.973,58.04l134.098,142.102l0.539-0.559L1121.512,57.481
				L1120.973,58.04z M1396.972,667.861l-0.373-0.946c-0.236,0.098-0.464,0.213-0.692,0.324l0.407,1.033L1396.972,667.861z
				 M600.123,342.271l0.766-0.132l-32.365-218.021c-0.26,0.011-0.521,0.015-0.782,0.02L600.123,342.271z M901.471,694.105
				l9.955-185.422l-0.767,0.126l-9.948,185.287c0.1-0.001,0.195-0.015,0.295-0.015C901.163,694.082,901.314,694.102,901.471,694.105
				z M624.412,808.233l0.404,0.663l259.904-88.37c-0.114-0.227-0.227-0.455-0.331-0.688L624.412,808.233z M1000.003,187.047
				c0,8.148,6.604,14.753,14.752,14.753s14.753-6.604,14.753-14.753c0-8.147-6.605-14.753-14.753-14.753
				S1000.003,178.899,1000.003,187.047z M1028.837,187.047c0,7.777-6.305,14.083-14.082,14.083s-14.082-6.306-14.082-14.083
				s6.305-14.082,14.082-14.082S1028.837,179.27,1028.837,187.047z M918.974,711.289l0.226,0.001
				c-0.533-9.437-8.217-16.944-17.729-17.185l-0.024,0.45l-0.767,0.126l0.031-0.585c-9.939,0.159-17.951,8.255-17.951,18.232
				c0,2.68,0.592,5.217,1.63,7.51l0.085-0.029l0.404,0.663l-0.158,0.054c3.004,5.956,9.159,10.05,16.285,10.05
				c10.077,0,18.246-8.169,18.246-18.247c0-0.094-0.013-0.186-0.014-0.279h-0.109L918.974,711.289z M901.006,729.747
				c-9.619,0-17.417-7.798-17.417-17.418c0-9.619,7.798-17.417,17.417-17.417s17.417,7.798,17.417,17.417
				C918.423,721.949,910.625,729.747,901.006,729.747z M1105.603,711.829l-186.403-0.539c0.015,0.253,0.035,0.504,0.039,0.76
				l186.378,0.54c-0.004-0.217-0.017-0.431-0.017-0.648C1105.6,711.904,1105.603,711.867,1105.603,711.829z M853.984,124.042
				l0.076-0.772L600.956,94.758l-0.076,0.772L853.984,124.042z M867.251,145.707l-0.731-0.262l-44.237,110.629
				c0.243,0.09,0.482,0.187,0.722,0.285L867.251,145.707z M762.539,439.272l45.319-138.129c-0.251-0.068-0.501-0.137-0.748-0.212
				L761.81,439.006l-130.521-47.71c-0.106,0.236-0.209,0.475-0.32,0.709l130.599,47.739l-27.17,82.813L624.539,401.18
				c-0.177,0.181-0.356,0.359-0.537,0.536l110.124,121.669l-9.388,28.613c0.248,0.076,0.492,0.16,0.738,0.241l9.249-28.191
				l156.464,172.868l0.445-0.636L734.998,523.219l27.3-83.209l139.137,50.86c0.173-0.217,0.356-0.424,0.546-0.626L762.539,439.272z
				 M71.929,468.616l-0.296-0.351c-1.711,1.556-3.977,2.512-6.471,2.512c-0.907,0-1.782-0.134-2.614-0.369l-0.152,0.434
				c0.88,0.251,1.806,0.394,2.766,0.394C67.769,471.235,70.137,470.238,71.929,468.616z M903.023,491.451l0.242-0.737l-0.785-0.287
				c-0.194,0.201-0.385,0.405-0.562,0.621L903.023,491.451z M623.537,400.072l1.002,1.107c2.615-2.67,4.798-5.765,6.43-9.175
				l-0.098-0.036l0.243-0.737l0.175,0.064c1.927-4.277,3.008-9.018,3.008-14.013c0-8.467-3.086-16.208-8.187-22.177l-0.679,0.624
				l-0.545-0.554l0.715-0.657c-6.256-6.995-15.346-11.401-25.468-11.401c-18.868,0-34.163,15.297-34.163,34.165
				c0,13.883,8.284,25.823,20.175,31.168l0.1-0.314l0.767,0.126l-0.16,0.507c4.083,1.725,8.571,2.679,13.282,2.679
				c9.291,0,17.711-3.714,23.87-9.732l-0.912-1.007L623.537,400.072z M567.522,377.282c0-18.011,14.6-32.611,32.61-32.611
				s32.611,14.601,32.611,32.611s-14.601,32.612-32.611,32.612S567.522,395.293,567.522,377.282z M222.219,625.623l-0.15-0.043
				l0.121-0.767l0.295,0.084c0.686-2.051,1.072-4.239,1.072-6.521c0-11.364-9.212-20.577-20.576-20.577
				c-11.364,0-20.576,9.213-20.576,20.577c0,9.781,6.833,17.953,15.982,20.043l0.022-0.115l0.77,0.099l-0.035,0.179
				c1.244,0.235,2.524,0.371,3.836,0.371C211.79,638.953,219.285,633.406,222.219,625.623z M183.34,618.377
				c0-10.848,8.793-19.642,19.641-19.642c10.847,0,19.64,8.794,19.64,19.642c0,10.847-8.793,19.641-19.64,19.641
				C192.134,638.018,183.34,629.224,183.34,618.377z M256.08,439.108l-1.1,0.906c6.194,7.225,15.382,11.809,25.645,11.809
				c5.799,0,11.255-1.463,16.023-4.038l-0.364-0.489l0.549-0.549l0.488,0.655c10.198-5.813,17.079-16.778,17.079-29.356
				c0-18.654-15.122-33.776-33.775-33.776c-3.513,0-6.899,0.537-10.084,1.532l0.11,0.353l-0.734,0.253l-0.111-0.357
				c-13.345,4.512-22.956,17.127-22.956,31.996c0,8.112,2.862,15.554,7.628,21.377l1.075-0.885L256.08,439.108z M248.385,418.047
				c0-17.806,14.434-32.241,32.24-32.241c17.806,0,32.24,14.436,32.24,32.241c0,17.807-14.434,32.241-32.24,32.241
				C262.819,450.288,248.385,435.854,248.385,418.047z M473.966,685.836c0.18-0.188,0.361-0.372,0.547-0.553l-177.191-237.88
				c-0.224,0.128-0.446,0.259-0.673,0.382L473.966,685.836z M1081.18,480.087l0.378-0.678l-0.234-0.177
				c-0.15,0.208-0.293,0.42-0.431,0.638L1081.18,480.087z M61.896,469.921l-0.085,0.244c0.242,0.09,0.487,0.172,0.737,0.243
				l0.091-0.26L61.896,469.921z M444.665,506.884c9.647-0.706,17.261-8.738,17.261-18.566c0-10.146-8.113-18.381-18.202-18.613
				l0.007,0.19l-0.774,0.043l-0.009-0.237c-10.132,0.185-18.291,8.441-18.291,18.617c0,10.292,8.343,18.636,18.635,18.636
				c0.265,0,0.523-0.029,0.785-0.04l0.532-0.236L444.665,506.884z M443.291,506.105c-9.824,0-17.788-7.964-17.788-17.788
				s7.964-17.788,17.788-17.788c9.823,0,17.787,7.964,17.787,17.788S453.114,506.105,443.291,506.105z M1085.956,497.202
				l-0.117,0.136c0.237,0.117,0.474,0.235,0.72,0.337l0.064-0.075L1085.956,497.202z M71.601,468.227l0.032,0.038
				c0.192-0.174,0.377-0.355,0.554-0.544l-0.026-0.031L71.601,468.227z M443.724,469.705l-9.408-259.421
				c-0.255,0.026-0.516,0.032-0.776,0.04l9.407,259.377c0.116-0.002,0.228-0.018,0.344-0.018
				C443.437,469.683,443.578,469.701,443.724,469.705z M917.128,489.696l0.099-0.106c-1.93-1.75-4.481-2.826-7.292-2.826
				c-3.145,0-5.97,1.344-7.954,3.479l0.5,0.183c1.887-1.951,4.526-3.168,7.454-3.168c5.73,0,10.376,4.646,10.376,10.377
				c0,5.73-4.646,10.376-10.376,10.376s-10.376-4.646-10.376-10.376c0-2.502,0.886-4.796,2.36-6.588l-0.484-0.177
				c-1.479,1.857-2.37,4.206-2.37,6.765c0,6.003,4.867,10.87,10.87,10.87c6.004,0,10.87-4.867,10.87-10.87
				c0-2.917-1.155-5.56-3.024-7.512l-0.016,0.017L917.128,489.696z M991.269,411.271l69.331-74.392
				c-0.146-0.222-0.277-0.454-0.415-0.683l-69.532,74.608L833.301,292.058c-0.149,0.208-0.301,0.416-0.457,0.619l157.281,118.694
				l-72.898,78.219c0.19,0.172,0.376,0.348,0.554,0.534l72.962-78.287l89.684,67.682c0.139-0.217,0.283-0.429,0.434-0.636
				L991.269,411.271z M491.486,678.564l0.113-0.051l-46.935-171.63c-0.195,0.014-0.392,0.021-0.588,0.03l-0.178,0.079
				l46.917,171.566c0.076-0.001,0.15-0.006,0.226-0.006C491.191,678.553,491.338,678.562,491.486,678.564z M616.502,802.39
				l0.75,0.201l95.186-180.767c-0.276-0.015-0.549-0.043-0.823-0.062L616.502,802.39z M807.489,299.777l-0.043,0.13
				c0.247,0.075,0.497,0.145,0.748,0.212l0.04-0.123L807.489,299.777z M1077.061,344.553l-0.035-0.312l-0.729,0.27l0.007,0.063
				c0.061,0,0.118,0.009,0.179,0.009C1076.678,344.582,1076.866,344.559,1077.061,344.553z M383.432,802.03
				c0.19,0.178,0.379,0.356,0.564,0.538l95.168-79.848c-0.236-0.137-0.47-0.277-0.701-0.423L383.432,802.03z M383.166,802.254
				l0.266-0.224c-6.152-5.763-14.409-9.304-23.498-9.333l0.229,0.999l-0.76,0.162l-0.263-1.146
				c-13.214,0.256-24.606,7.926-30.193,19.028l0.9,0.434l-0.294,0.719l-0.952-0.458c-2.134,4.489-3.332,9.511-3.332,14.812
				c0,0.359,0.016,0.715,0.027,1.072l1.091-0.345l0.261,0.731l-1.326,0.419c0.975,18.209,16.046,32.675,34.498,32.675
				c19.042,0,34.484-15.405,34.55-34.433l-0.383,0.022l-0.072-0.773l0.441-0.025c-0.176-9.408-4.106-17.894-10.362-24.022
				l-0.293,0.246L383.166,802.254z M392.804,827.247c0,18.216-14.766,32.982-32.981,32.982c-18.215,0-32.98-14.767-32.98-32.982
				s14.766-32.982,32.98-32.982C378.038,794.265,392.804,809.031,392.804,827.247z M1086.142,340.446l0.19,1.218
				c0.241-0.156,0.475-0.319,0.707-0.486l-0.143-0.913L1086.142,340.446z M859.559,140.825l-0.544-0.554L625.601,354.518
				c0.173,0.193,0.34,0.39,0.509,0.587L859.559,140.825z M499.895,680.962l0.195-0.615c-2.658-1.101-5.561-1.727-8.603-1.782
				l-0.597,0.264l-0.074-0.27c-6.342,0.06-12.085,2.611-16.303,6.725l0.093,0.125l-0.549,0.55l-0.091-0.122
				c-4.088,4.256-6.606,10.032-6.606,16.399c0,8.456,4.436,15.873,11.104,20.062l0.345-0.289l0.537,0.561l-0.181,0.151
				c3.492,2.029,7.547,3.197,11.877,3.197c13.079,0,23.682-10.604,23.682-23.683c0-9.601-5.716-17.86-13.927-21.579l-0.137,0.432
				L499.895,680.962z M513.647,702.235c0,12.485-10.121,22.605-22.605,22.605s-22.604-10.12-22.604-22.605
				s10.12-22.606,22.604-22.606S513.647,689.75,513.647,702.235z M500.089,680.347c0.238,0.099,0.473,0.204,0.708,0.31
				l86.054-271.888c-0.238-0.101-0.471-0.212-0.706-0.318L500.089,680.347z M394.372,827.367l204.666-11.913l-0.072-0.773
				l-204.607,11.91c0.004,0.219,0.017,0.437,0.017,0.656C394.375,827.287,394.372,827.327,394.372,827.367z M1040.751,247.775
				l25.472,62.646c0.22-0.141,0.445-0.275,0.671-0.408l-25.349-62.346l42.445-5.782l-3.251,66.011
				c0.035,0.008,0.068,0.019,0.103,0.026l0.673,0.001l3.258-66.145l161.815-22.044l-0.141-0.763l-161.637,22.019l8.381-170.16
				l-0.776-0.001l-8.386,170.267l-42.786,5.829l-19.121-47.027l-0.708,0.319l19.035,46.816l-202.995,27.653
				c0.039,0.254,0.067,0.512,0.098,0.77L1040.751,247.775z M55.526,461.142c0-5.322,4.314-9.636,9.635-9.636
				s9.635,4.313,9.635,9.636c0,2.547-0.996,4.856-2.609,6.579l0.298,0.354c1.713-1.809,2.771-4.245,2.771-6.933
				c0-5.575-4.519-10.095-10.094-10.095c-1.054,0-2.069,0.163-3.024,0.462l0.079,0.181l-0.716,0.301l-0.094-0.214
				c-3.713,1.49-6.339,5.118-6.339,9.365c0,4.341,2.746,8.031,6.591,9.457l0.151-0.433
				C58.144,468.803,55.526,465.282,55.526,461.142z M132.193,540.13L24.279,629c0.175,0.19,0.346,0.385,0.517,0.578l107.896-88.856
				l54.36,64.506l0.561-0.538l-54.322-64.461L254.98,440.014c-0.168-0.196-0.339-0.39-0.502-0.59L132.792,539.637l-60.307-71.562
				c-0.178,0.188-0.364,0.367-0.556,0.542L132.193,540.13z M179.446,739.722l19.698-101.14c-0.255-0.048-0.506-0.104-0.758-0.162
				l-19.662,100.955L29.652,667.563c-0.117,0.23-0.231,0.462-0.353,0.689l149.272,71.908l-5.866,30.12
				c0.258,0.031,0.514,0.07,0.767,0.116l5.821-29.89l149.31,71.927c0.111-0.234,0.229-0.464,0.345-0.694L179.446,739.722z
				 M791.438,278.282c0-12.484,10.121-22.605,22.605-22.605s22.604,10.121,22.604,22.605c0,12.485-10.12,22.606-22.604,22.606
				c-2.023,0-3.983-0.27-5.85-0.769l-0.336,1.023c1.973,0.532,4.045,0.821,6.186,0.821c7.663,0,14.472-3.643,18.8-9.288
				l-0.582-0.439l0.379-0.679l0.66,0.499c2.782-3.882,4.425-8.636,4.425-13.776c0-0.957-0.063-1.898-0.174-2.825l-0.138,0.019
				l-0.141-0.764l0.181-0.024c-1.269-8.331-6.88-15.23-14.45-18.328l-0.097,0.242l-0.731-0.262l0.106-0.266
				c-2.566-0.952-5.341-1.475-8.238-1.475c-13.079,0-23.682,10.604-23.682,23.683c0,10.667,7.053,19.684,16.748,22.649l0.336-1.023
				C798.181,297.084,791.438,288.472,791.438,278.282z M62.396,470.842c-0.25-0.071-0.495-0.154-0.737-0.244l-52.118,149
				c0.247,0.079,0.491,0.165,0.735,0.249L62.396,470.842z M28.268,666.896l1.384,0.667c2.345-4.632,3.675-9.864,3.675-15.41
				c0-8.656-3.225-16.555-8.531-22.575l-0.171,0.142l-0.527-0.569l0.182-0.15c-3.797-4.117-8.593-7.293-14.004-9.153l-0.082,0.233
				l-0.742-0.228l0.089-0.255c-3.018-0.961-6.223-1.496-9.541-1.577v1.542c17.623,0.444,31.774,14.859,31.774,32.591
				c0,17.73-14.152,32.146-31.774,32.59v1.545c12.69-0.307,23.667-7.517,29.299-18.035l-1.326-0.639L28.268,666.896z
				 M467.951,695.798l0.121-0.767l-139.697-39.894L281.82,452.212l-0.759,0.162l46.462,202.52l-105.039-29.996
				c-0.082,0.245-0.175,0.484-0.266,0.726l105.501,30.128l31.421,136.961c0.228-0.005,0.453-0.018,0.681-0.018
				c0.038,0,0.075,0.003,0.112,0.003l-31.362-136.702L467.951,695.798z M325.977,819.94l0.112-0.769l-142.302-34.185
				c-0.041,0.257-0.08,0.513-0.135,0.764L325.977,819.94z M164.386,792.762l-0.651-0.423l-0.176,0.229
				c0.202,0.16,0.408,0.315,0.62,0.463L164.386,792.762z M89.392,888.909l0.652,0.423l73.78-95.84
				c-0.212-0.147-0.418-0.303-0.62-0.463L89.392,888.909z M97.262,900.3c0.084,0.244,0.168,0.488,0.245,0.736l227.818-71.911
				c-0.015-0.268-0.018-0.537-0.025-0.806L97.262,900.3z M172.619,770.726l0.086-0.444c-0.512-0.062-1.03-0.104-1.559-0.104
				c-7.076,0-12.812,5.735-12.812,12.812c0,4.073,1.906,7.694,4.869,10.041l0.355-0.461c-2.824-2.24-4.641-5.695-4.641-9.58
				c0-6.754,5.475-12.229,12.229-12.229s12.229,5.476,12.229,12.229s-5.475,12.229-12.229,12.229c-2.591,0-4.99-0.812-6.968-2.187
				l-0.355,0.461c2.077,1.45,4.598,2.308,7.323,2.308c6.126,0,11.241-4.303,12.505-10.049l-0.511-0.123l0.112-0.769l0.534,0.128
				c0.103-0.652,0.171-1.317,0.171-1.999c0-6.281-4.522-11.495-10.486-12.591l-0.083,0.427L172.619,770.726z M1077.061,344.553
				l0.096,0.86c3.414-0.12,6.594-1.135,9.32-2.825l-0.145-0.923C1083.646,343.404,1080.473,344.445,1077.061,344.553z
				 M1271.051,232.538c0.233-0.084,0.47-0.162,0.698-0.255l-0.013-0.062L1271.051,232.538z M1094.659,325.287l0.79,0.025
				c-0.492-8.505-6.557-15.499-14.607-17.39h-0.104l0.001-0.026c-1.37-0.313-2.791-0.495-4.257-0.495
				c-3.501,0-6.771,0.962-9.589,2.613l0.213,0.523l-0.708,0.318l-0.176-0.434c-5.266,3.383-8.763,9.279-8.763,16.003
				c0,3.579,1.007,6.915,2.725,9.773l0.315-0.338l0.637,0.444l-0.537,0.576c3.389,5.137,9.193,8.535,15.801,8.563l-0.097-0.87
				c-9.945-0.097-17.979-8.182-17.979-18.149c0-10.029,8.13-18.159,18.158-18.159s18.158,8.13,18.158,18.159
				c0,6.086-3.005,11.46-7.602,14.754l0.151,0.966c5.019-3.425,8.315-9.187,8.315-15.72c0-0.12-0.016-0.236-0.018-0.356
				l-0.668-0.021L1094.659,325.287z M7.705,348.271c-2.709,0-5.304-0.486-7.705-1.373v1.121c2.412,0.846,5.003,1.311,7.705,1.311
				c2.903,0,5.681-0.536,8.244-1.506l-0.424-0.971C13.091,347.767,10.457,348.271,7.705,348.271z M1292.185,331.532l-20.267-98.428
				c-0.235,0.094-0.477,0.178-0.717,0.263l20.207,98.141l-195.959-6.195c0.015,0.251,0.034,0.502,0.039,0.756l196.076,6.199
				l31.344,152.232c0.254-0.015,0.508-0.032,0.765-0.039l-31.332-152.169l95.626,3.023c0.044-0.25,0.085-0.501,0.134-0.75
				L1292.185,331.532z M1349.403,57.235c-28.653,0-51.881-23.229-51.881-51.883c0-1.808,0.094-3.593,0.274-5.353h-2.48
				c-0.172,1.761-0.265,3.546-0.265,5.353c0,30.019,24.334,54.354,54.352,54.354c6.216,0,12.182-1.058,17.745-2.979l-0.519-2.433
				C1361.238,56.192,1355.444,57.235,1349.403,57.235z M511.824,690.376l0.425,0.65l169.808-89.429
				c-0.111-0.232-0.212-0.471-0.319-0.706L511.824,690.376z M713.43,619.939l-0.75-0.201l-0.241,0.459
				c0.279,0.015,0.562,0.017,0.842,0.024L713.43,619.939z M1271.051,232.538c-1.843,0.664-3.82,1.044-5.892,1.044
				c-9.619,0-17.417-7.798-17.417-17.417c0-9.62,7.798-17.418,17.417-17.418s17.417,7.798,17.417,17.418
				c0,7.286-4.478,13.519-10.827,16.118l0.169,0.821c6.728-2.688,11.487-9.251,11.487-16.938c0-10.078-8.169-18.247-18.246-18.247
				s-18.247,8.169-18.247,18.247c0,10.077,8.17,18.247,18.247,18.247c2.121,0,4.148-0.38,6.042-1.046l-0.169-0.819L1271.051,232.538
				z M724.351,553.18l0.388-1.182c-3.311-1.014-6.825-1.562-10.468-1.562c-19.726,0-35.717,15.991-35.717,35.718
				c0,5.257,1.145,10.244,3.185,14.738l0.066-0.035l0.426,0.649l-0.173,0.091c5.397,11.237,16.503,19.204,29.557,20.165l0.824-1.564
				c-17.977-0.953-32.261-15.83-32.261-34.044c0-18.83,15.264-34.095,34.093-34.095s34.093,15.265,34.093,34.095
				c0,18.829-15.264,34.094-34.093,34.094c-0.332,0-0.66-0.016-0.99-0.025l-0.843,1.603c0.607,0.03,1.218,0.046,1.833,0.046
				c19.726,0,35.717-15.991,35.717-35.717c0-15.811-10.276-29.213-24.511-33.914l-0.381,1.16L724.351,553.18z M97.169,900.329
				l0.092-0.029c-3.196-9.298-12.012-15.982-22.395-15.982c-13.079,0-23.682,10.604-23.682,23.683s10.603,23.683,23.682,23.683
				S98.549,921.079,98.549,908c0-2.424-0.366-4.762-1.042-6.964l-0.076,0.024L97.169,900.329z M74.867,930.605
				c-12.484,0-22.605-10.121-22.605-22.605s10.121-22.605,22.605-22.605S97.472,895.516,97.472,908S87.352,930.605,74.867,930.605z
				 M33.327,56.6l0.118,1.457c7.114-0.504,13.625-3.183,18.872-7.381l-0.713-0.688l0.537-0.562l0.785,0.756
				c7.478-6.267,12.237-15.673,12.237-26.194c0-9.35-3.759-17.819-9.844-23.988h-2.234c6.469,5.959,10.525,14.499,10.525,23.988
				c0,18.011-14.6,32.611-32.61,32.611C16.525,56.6,4.262,47.168,0,34.12v4.23c5.426,11.691,17.261,19.803,30.998,19.803
				c0.562,0,1.12-0.016,1.675-0.042L32.551,56.6H33.327z M425.81,206.583l-0.063,0.099c0.183,0.189,0.376,0.368,0.573,0.543
				l0.15-0.233L425.81,206.583z M212.298,145.117c-29.803,0-53.963,24.161-53.963,53.965s24.16,53.965,53.963,53.965
				c29.803,0,53.963-24.161,53.963-53.965S242.101,145.117,212.298,145.117z M212.298,250.594c-28.448,0-51.51-23.062-51.51-51.512
				s23.062-51.512,51.51-51.512s51.51,23.062,51.51,51.512S240.746,250.594,212.298,250.594z M16.023,346.057l-0.715,0.302
				l0.216,0.494c0.243-0.091,0.484-0.186,0.723-0.285L16.023,346.057z M1090.692,473.995l-0.045-0.401
				c-4.03,0.183-7.569,2.221-9.788,5.288l0.464,0.35c2.222-3.076,5.828-5.085,9.912-5.085c6.754,0,12.229,5.475,12.229,12.229
				c0,6.755-5.475,12.229-12.229,12.229c-1.657,0-3.236-0.333-4.677-0.931l-0.4,0.463c1.558,0.673,3.272,1.05,5.077,1.05
				c7.075,0,12.812-5.736,12.812-12.812c0-7.019-5.646-12.712-12.643-12.803l0.017,0.152L1090.692,473.995z M422.821,199.471h-0.494
				c0,2.979,1.2,5.677,3.142,7.64l0.277-0.429C423.938,204.814,422.821,202.275,422.821,199.471z M304.822,393.831l0.66,0.409
				l120.565-186.595c-0.198-0.173-0.395-0.348-0.579-0.535L304.822,393.831z M1079.006,486.376c0-2.394,0.698-4.62,1.887-6.505
				l-0.467-0.352c-1.261,1.984-2.002,4.332-2.002,6.857c0,4.99,2.858,9.303,7.021,11.418l0.395-0.457
				C1081.795,495.343,1079.006,491.191,1079.006,486.376z M423.104,199.471v-0.776h-0.243c-0.019,0.257-0.039,0.514-0.039,0.776
				H423.104z M266.261,198.694v0.388v0.389h156.066c0-0.262,0.021-0.519,0.039-0.776H266.261z M170.58,164.715l0.537-0.561
				L52.925,50.182c-0.2,0.167-0.404,0.33-0.608,0.493L170.58,164.715z M16.671,347.538c-0.239,0.1-0.48,0.193-0.723,0.285
				l45.458,103.953c0.24-0.097,0.482-0.189,0.73-0.268L16.671,347.538z M30.998,326.035c0-12.865-10.429-23.294-23.293-23.294
				c-2.701,0-5.292,0.465-7.705,1.311v1.121c2.401-0.887,4.996-1.373,7.705-1.373c12.28,0,22.234,9.955,22.234,22.235
				c0,9.253-5.653,17.184-13.692,20.532l0.424,0.971C25.084,344.025,30.998,335.722,30.998,326.035z M165.625,228.676l-0.41-0.659
				L52.774,297.56L33.445,58.057c-0.257,0.018-0.513,0.042-0.772,0.054l19.362,239.906L27.59,313.136l0.41,0.659l24.105-14.909
				l12.28,152.161h0.776L52.844,298.429L165.625,228.676z M228.441,250.91l-0.734,0.253l42.099,134.888
				c0.245-0.083,0.488-0.171,0.735-0.249L228.441,250.91z M1076.4,345.443l14.247,128.151c0.196-0.009,0.39-0.03,0.588-0.03
				c0.057,0,0.112,0.008,0.169,0.009l-14.248-128.16c-0.226,0.008-0.446,0.034-0.674,0.034
				C1076.455,345.447,1076.428,345.443,1076.4,345.443z M434.309,210.086l0.007,0.198c5.477-0.56,9.751-5.187,9.751-10.813
				c0-6.004-4.867-10.871-10.87-10.871c-5.742,0-10.432,4.455-10.831,10.095h0.494c0.398-5.367,4.869-9.601,10.337-9.601
				c5.73,0,10.376,4.646,10.376,10.377s-4.646,10.376-10.376,10.376c-2.642,0-5.046-0.996-6.878-2.622l-0.271,0.42
				c1.912,1.673,4.409,2.695,7.149,2.695c0.116,0,0.228-0.014,0.343-0.018l-0.007-0.194L434.309,210.086z"/>
		</g>
	</g>
</g>
<g id="Ellipse_2_copy_34_1_" opacity="0.4392" enable-background="new    ">
	<g id="Ellipse_2_copy_34">
		<g>
			<path fill="#C7C7C7" d="M142.283,1174.748c-0.651-0.478-1.352-0.838-2.078-1.086l-0.033,0.146l-0.579-0.138l0.039-0.175
				c-2.97-0.765-6.237,0.285-8.163,2.907c-1.968,2.681-1.945,6.205-0.215,8.829l0.29-0.198c-1.647-2.504-1.668-5.866,0.209-8.423
				c2.413-3.286,7.034-3.993,10.321-1.58c3.288,2.414,3.997,7.035,1.584,10.321c-1.155,1.573-2.817,2.548-4.595,2.879l0.024,0.354
				c1.878-0.34,3.636-1.364,4.854-3.024C146.47,1182.117,145.727,1177.277,142.283,1174.748z M132.064,1185.398l-0.356-0.477
				l-0.164,0.112c0.108,0.165,0.223,0.327,0.345,0.484L132.064,1185.398z M158.947,1087.486l-0.087,0.387
				c0.191,0.054,0.38,0.119,0.572,0.166l0.093-0.414L158.947,1087.486z M133.338,1186.932c-0.561-0.411-1.04-0.891-1.448-1.413
				l-0.291,0.199c0.43,0.554,0.938,1.062,1.531,1.497c1.611,1.183,3.526,1.642,5.368,1.452l-0.023-0.351
				C136.712,1188.501,134.879,1188.063,133.338,1186.932z M305.17,1082.995l0.046-0.594l-100.998-8.056l96.645-156.67
				c-0.167-0.105-0.336-0.207-0.502-0.316l-96.807,156.933l-21.957-1.751l-0.046,0.594l21.652,1.727l-61.4,99.535l0.479,0.352
				l61.584-99.833L305.17,1082.995z M337.229,1045.744l0.586-0.104l-21.348-123.992c-0.199,0.013-0.399,0.021-0.599,0.029
				L337.229,1045.744z M301.45,916.724l-0.587,0.952c4.624,2.916,9.861,4.214,15.006,4.002l-0.129-0.748l0.586-0.104l0.142,0.822
				c7.461-0.478,14.666-4.128,19.436-10.625c8.555-11.651,6.04-28.035-5.616-36.594c-11.657-8.559-28.042-6.05-36.597,5.602
				c-8.555,11.652-6.04,28.036,5.617,36.595c0.347,0.255,0.699,0.498,1.054,0.733l0.61-0.988L301.45,916.724z M300.011,915.667
				c-11.127-8.17-13.527-23.809-5.362-34.931c8.166-11.123,23.806-13.517,34.933-5.348c11.128,8.169,13.528,23.809,5.362,34.931
				C326.778,921.442,311.139,923.836,300.011,915.667z M159.254,1088.831c-0.192-0.047-0.381-0.113-0.572-0.166l-19.049,84.831
				c0.192,0.049,0.384,0.102,0.572,0.166L159.254,1088.831z M141.615,1235h0.595l-3.122-46.415c-0.195,0.035-0.392,0.062-0.59,0.082
				L141.615,1235z M153.382,1085.219c-7.587-5.57-9.224-16.233-3.656-23.816c5.567-7.584,16.231-9.216,23.818-3.646
				c7.586,5.57,9.223,16.233,3.656,23.816c-4.195,5.715-11.283,8.045-17.768,6.467l-0.178,0.792
				c6.791,1.646,14.208-0.797,18.6-6.778c5.833-7.944,4.118-19.115-3.83-24.95s-19.12-4.125-24.952,3.819
				c-5.833,7.944-4.118,19.115,3.83,24.95c1.794,1.317,3.756,2.229,5.78,2.793l0.178-0.792
				C156.942,1087.334,155.083,1086.467,153.382,1085.219z M138.472,1188.278l0.002,0.038c0.198-0.021,0.394-0.049,0.589-0.085
				l-0.002-0.031L138.472,1188.278z M485.389,1178.021l0.593,0.052l18.217-171.029c-0.198-0.019-0.396-0.028-0.593-0.053
				L485.389,1178.021z M58.646,1235h1.052l71.901-49.282c-0.122-0.158-0.235-0.32-0.344-0.485L58.646,1235z M582.956,1235h0.673
				l17.862-33.825c-0.166-0.11-0.329-0.227-0.492-0.342L582.956,1235z M492.545,1186.057l0.023,0.595l97.806-2.87
				c-0.031-0.197-0.057-0.396-0.084-0.594L492.545,1186.057z M333.33,1125.041l-35.147,102.395c0.189,0.06,0.379,0.115,0.567,0.18
				l35.148-102.397L333.33,1125.041z M514.721,1003.878l0.384,0.661c1.94-1.178,3.689-2.742,5.116-4.686
				c5.833-7.944,4.118-19.115-3.83-24.95s-19.119-4.125-24.952,3.819c-4.292,5.846-4.484,13.432-1.127,19.36l0.431-0.265
				l0.315,0.504l-0.449,0.276c1.176,1.923,2.73,3.658,4.66,5.075c2.542,1.866,5.416,2.952,8.337,3.317l0.056-0.526l0.593,0.053
				l-0.056,0.526c3.592,0.327,7.222-0.433,10.388-2.213l-0.378-0.651L514.721,1003.878z M495.748,1003.02
				c-7.586-5.57-9.223-16.232-3.655-23.816s16.231-9.216,23.817-3.646c7.587,5.569,9.224,16.232,3.656,23.816
				C513.999,1006.957,503.335,1008.59,495.748,1003.02z M383.183,1063.854l0.316,0.504l107.109-65.76
				c-0.104-0.17-0.199-0.344-0.297-0.516L383.183,1063.854z M631.244,1158.851c-8.326-6.112-19.09-6.512-27.614-1.921l0.214,0.368
				l-0.513,0.302l-0.22-0.378c-3.066,1.744-5.826,4.14-8.048,7.167c-4.135,5.632-5.647,12.382-4.773,18.799l0.349-0.01l0.023,0.595
				l-0.288,0.009c1.037,6.488,4.526,12.589,10.242,16.785c0.126,0.093,0.256,0.177,0.383,0.267l0.483-0.915l0.532,0.266
				l-0.523,0.991c11.457,7.718,27.06,5.086,35.306-6.146C645.255,1183.509,642.769,1167.312,631.244,1158.851z M601.312,1199.619
				c-11.001-8.077-13.374-23.538-5.301-34.534s23.535-13.363,34.536-5.286c11.001,8.076,13.374,23.537,5.301,34.533
				S612.313,1207.695,601.312,1199.619z M515.105,1004.539c-0.17,0.104-0.345,0.195-0.519,0.292l88.525,152.391
				c0.173-0.099,0.344-0.198,0.519-0.292L515.105,1004.539z M298.09,1227.706l0.093-0.271c-9.593-3.046-20.371-0.265-27.25,7.564
				h1.598c8.446-8.825,22.331-10.236,32.447-2.809c1.167,0.856,2.23,1.8,3.2,2.809h1.602c-1.208-1.368-2.574-2.633-4.105-3.757
				c-2.17-1.594-4.506-2.798-6.924-3.628l-0.092,0.268L298.09,1227.706z M634.84,1197.756l-0.397,0.442L674.311,1235h0.877
				L634.84,1197.756z M477.484,1181.748l0.353-0.479l-0.15-0.11c-0.128,0.15-0.258,0.3-0.376,0.462L477.484,1181.748z
				 M144.938,1184.15L252.807,1235h1.392l-109.035-51.399L144.938,1184.15z M475.932,1187.368l-0.084,0.032
				c0.027,0.199,0.065,0.397,0.108,0.595l0.199-0.075L475.932,1187.368z M450.587,1235h0.719l28.203-41.488
				c-0.169-0.1-0.333-0.215-0.497-0.327L450.587,1235z M350.77,1235h1.673l123.155-46.868c-0.044-0.196-0.086-0.394-0.116-0.593
				L350.77,1235z M380.938,1110.127l-0.161,0.219c-0.005,0.007-0.01,0.015-0.015,0.021c-0.005,0.008-0.012,0.015-0.017,0.021
				l-0.16,0.218l96.42,70.789c0.119-0.162,0.248-0.311,0.376-0.462L380.938,1110.127z M371.889,1052.564
				c-18.412-13.518-44.293-9.557-57.806,8.849c-13.512,18.405-9.54,44.284,8.873,57.802c18.405,13.513,44.271,9.56,57.789-8.826
				l0.032-0.043C394.27,1091.941,390.295,1066.078,371.889,1052.564z M379.246,1109.254c-12.898,17.568-37.603,21.351-55.179,8.446
				c-17.575-12.903-21.367-37.606-8.469-55.175s37.603-21.35,55.178-8.445C388.353,1066.983,392.145,1091.686,379.246,1109.254z
				 M488.649,1179.613c-3.547-2.604-8.465-1.98-11.269,1.32l0.306,0.225c2.679-3.134,7.36-3.72,10.739-1.24
				c3.54,2.6,4.304,7.576,1.705,11.115c-2.598,3.539-7.574,4.301-11.114,1.701c-1.633-1.198-2.667-2.904-3.061-4.739l-0.358,0.137
				c0.422,1.9,1.501,3.664,3.194,4.907c0.072,0.053,0.147,0.096,0.221,0.146l0.084-0.124l0.498,0.325l-0.085,0.126
				c3.638,2.139,8.377,1.22,10.927-2.255C493.158,1187.55,492.358,1182.336,488.649,1179.613z M477.311,1181.62l-0.306-0.225
				c-1.351,1.841-1.832,4.051-1.523,6.144l0.366-0.139C475.578,1185.427,476.039,1183.352,477.311,1181.62z"/>
		</g>
	</g>
</g>
<g id="Ellipse_2_copy_35_1_" opacity="0.4392" enable-background="new    ">
	<g id="Ellipse_2_copy_35">
		<g>
			<path fill="#C7C7C7" d="M1056.951,1235h0.76l20.186-24.768c-0.137-0.143-0.276-0.282-0.41-0.429L1056.951,1235z
				 M710.993,1138.231l-0.191,0.563l85.003,36.92c0.07-0.186,0.147-0.367,0.229-0.547L710.993,1138.231z M703.501,1146.529
				L758.007,1235h0.698l-54.709-88.8C703.83,1146.309,703.671,1146.426,703.501,1146.529z M1100.216,981.729l-0.313,0.243
				c0.113,0.163,0.217,0.334,0.335,0.492l0.336-0.26L1100.216,981.729z M1097.373,976.435c-2.297-9.127,3.236-18.387,12.359-20.683
				c9.124-2.297,18.382,3.241,20.679,12.368c2.297,9.128-3.237,18.388-12.36,20.684c-6.874,1.729-13.821-0.99-17.813-6.34
				l-0.642,0.497c4.184,5.597,11.457,8.441,18.653,6.63c9.558-2.405,15.355-12.106,12.949-21.668
				c-2.406-9.562-12.105-15.363-21.663-12.958c-9.559,2.405-15.355,12.106-12.949,21.668c0.543,2.158,1.474,4.111,2.675,5.836
				l0.642-0.497C1098.768,980.334,1097.888,978.48,1097.373,976.435z M703.964,1146.147l0.032,0.053
				c6.309-4.114,9.634-11.906,7.691-19.622c-2.446-9.722-12.307-15.62-22.023-13.175c-9.717,2.446-15.611,12.309-13.165,22.03
				c2.446,9.721,12.308,15.619,22.024,13.174c1.801-0.453,3.468-1.163,4.978-2.078l-0.031-0.051L703.964,1146.147z
				 M698.322,1147.808c-9.275,2.334-18.688-3.296-21.023-12.575s3.291-18.694,12.566-21.028c9.275-2.335,18.688,3.296,21.023,12.575
				C713.224,1136.059,707.598,1145.473,698.322,1147.808z M1118.33,1178.311c0.107,0.167,0.219,0.33,0.322,0.5l92.342-56.513
				l-0.325-0.498L1118.33,1178.311z M1215.763,1071.452l0.413-0.428l-72.698-70.572l174.319-59.146
				c-0.062-0.188-0.127-0.373-0.185-0.563L1143,999.988l-15.805-15.342l-0.414,0.428l15.585,15.129l-110.747,37.576l0.145,0.577
				l111.081-37.689L1215.763,1071.452z M1318.857,940.947l-1.061,0.359c1.706,5.194,4.914,9.531,9.014,12.647l0.378-0.659
				l0.518,0.294l-0.415,0.725c6.055,4.387,13.934,6.165,21.749,4.197c14.019-3.527,22.521-17.756,18.992-31.78
				c-3.529-14.023-17.755-22.533-31.772-19.005c-14.019,3.527-22.521,17.757-18.992,31.78c0.105,0.418,0.221,0.83,0.345,1.237
				l1.1-0.373L1318.857,940.947z M1336.55,908.88c13.381-3.367,26.96,4.755,30.328,18.141c3.369,13.387-4.747,26.969-18.128,30.336
				c-13.381,3.368-26.96-4.754-30.328-18.141C1315.053,925.829,1323.169,912.247,1336.55,908.88z M1264.208,1063.176l0.518,0.295
				l62.565-109.157c-0.162-0.117-0.321-0.238-0.48-0.359L1264.208,1063.176z M1099.596,982.961
				c-0.119-0.158-0.222-0.329-0.335-0.492l-68.74,53.234c0.116,0.16,0.23,0.322,0.335,0.493L1099.596,982.961z M1118.086,1178.46
				l0.244-0.149c-5.848-9.075-17.019-13.86-28.064-11.081c-6.026,1.517-11.021,5.035-14.455,9.667l0.858,0.633l-0.324,0.499
				l-0.879-0.648c-4.209,5.955-5.896,13.641-3.977,21.27c1.085,4.31,3.192,8.092,5.997,11.154l0.295-0.361l0.511,0.305l-0.396,0.485
				c6.227,6.493,15.659,9.558,25.005,7.206c13.858-3.488,22.265-17.555,18.775-31.42c-0.657-2.61-1.689-5.027-3.024-7.208
				l-0.241,0.147L1118.086,1178.46z M1120.536,1186.306c3.331,13.235-4.693,26.662-17.922,29.991
				c-13.229,3.329-26.653-4.7-29.984-17.935c-3.33-13.234,4.694-26.662,17.923-29.991S1117.206,1173.071,1120.536,1186.306z
				 M1286.571,1090.52c-5.575-22.151-28.044-35.592-50.187-30.019c-22.142,5.572-35.572,28.047-29.998,50.198
				c5.573,22.146,28.035,35.586,50.172,30.022l0.027-0.007C1278.721,1135.137,1292.145,1112.667,1286.571,1090.52z
				 M1256.114,1138.896c-21.136,5.319-42.584-7.511-47.905-28.655s7.499-42.598,28.635-47.916
				c21.136-5.319,42.584,7.51,47.905,28.654S1277.25,1133.576,1256.114,1138.896z M1256.559,1140.722l-0.274,0.069l23.709,94.209
				h0.613l-23.745-94.354l-0.275,0.069c-0.005,0.001-0.009,0.003-0.014,0.004S1256.563,1140.721,1256.559,1140.722z
				 M1020.205,1046.354l-0.022,0.031c0.166,0.11,0.335,0.214,0.509,0.311l0.018-0.025L1020.205,1046.354z M805.766,1235h0.593
				l-0.501-46.038c-0.198,0.019-0.396,0.037-0.592,0.043L805.766,1235z M1118.92,1206.358l84.355,28.642h1.851l-86.025-29.209
				L1118.92,1206.358z M1071.162,1199.075L1000.816,1235h1.308l69.301-35.391L1071.162,1199.075z M1027.818,1047.295l57.084,121.466
				l0.524-0.28l-57.084-121.466L1027.818,1047.295z M1425.956,1110.588c5.041-1.269,10.117-0.137,14.044,2.662v-0.974
				c-4.045-2.695-9.158-3.755-14.242-2.476c-7.032,1.77-12.015,7.493-13.206,14.201l0.5,0.07l-0.077,0.59l-0.522-0.074
				c-0.319,2.231-0.228,4.56,0.356,6.881c0.771,3.059,2.292,5.727,4.312,7.87l0.378-0.369l0.424,0.418l-0.378,0.369
				c2.559,2.542,5.841,4.27,9.415,4.916l0.123-0.743l0.588,0.094l-0.125,0.755c2.245,0.328,4.59,0.237,6.928-0.351
				c2.031-0.512,3.879-1.368,5.527-2.467v-0.98c-1.682,1.2-3.601,2.125-5.726,2.66c-9.124,2.296-18.382-3.242-20.679-12.369
				S1416.833,1112.884,1425.956,1110.588z M1288.08,1106.417l-0.078,0.591l124.45,17.58c0.027-0.196,0.065-0.391,0.1-0.586
				L1288.08,1106.417z M1411.946,1235h0.604l14.995-90.222c-0.197-0.029-0.391-0.07-0.586-0.105L1411.946,1235z M1319.199,1235
				h0.852l97.493-95.243c-0.142-0.14-0.288-0.272-0.424-0.418L1319.199,1235z M814.363,1177.995l0.347-0.019
				c-0.049-0.393-0.115-0.785-0.214-1.178c-1.323-5.26-6.657-8.45-11.914-7.127c-3.026,0.761-5.359,2.855-6.549,5.496l0.408,0.178
				c1.136-2.519,3.363-4.515,6.249-5.241c5.019-1.263,10.11,1.783,11.373,6.803c1.264,5.021-1.78,10.113-6.798,11.376
				s-10.109-1.783-11.373-6.803c-0.484-1.927-0.331-3.861,0.32-5.588l-0.408-0.178c-0.689,1.814-0.854,3.849-0.345,5.874
				c1.146,4.553,5.3,7.551,9.806,7.416l-0.005-0.403l0.592-0.061l0.005,0.421c0.504-0.046,1.011-0.118,1.518-0.246
				c4.665-1.174,7.694-5.511,7.392-10.147l-0.332,0.018L814.363,1177.995z M1016.54,1040.002c0.007-0.199,0.022-0.396,0.044-0.594
				l-120.446-10.88c-0.013,0.198-0.03,0.396-0.047,0.593L1016.54,1040.002z M1022.462,1033.083c3.954-0.995,7.966,1.404,8.961,5.359
				s-1.402,7.968-5.356,8.963c-1.892,0.477-3.794,0.168-5.375-0.709l-0.207,0.287c1.664,0.935,3.671,1.266,5.668,0.763
				c4.143-1.042,6.654-5.246,5.611-9.39c-0.197-0.783-0.508-1.507-0.908-2.16l-0.119,0.092l-0.357-0.476l0.142-0.109
				c-1.802-2.482-4.988-3.756-8.144-2.962c-3.226,0.812-5.454,3.543-5.793,6.667l0.35,0.032
				C1017.26,1036.46,1019.386,1033.856,1022.462,1033.083z M978.598,1105.188l41.887-58.204c-0.174-0.098-0.342-0.202-0.507-0.312
				l-41.857,58.164l-86.211-63.594c-0.108,0.166-0.221,0.329-0.333,0.492l86.197,63.584l-37.756,52.464l0.504,0.315l37.729-52.428
				l97.215,71.711c0.114-0.161,0.227-0.325,0.345-0.483L978.598,1105.188z M1017.131,1039.458l-0.197-0.018
				c-0.021,0.196-0.037,0.394-0.042,0.594l0.21,0.019L1017.131,1039.458z M796.453,1175.996l0.191-0.562l-0.203-0.088
				c-0.081,0.18-0.158,0.361-0.229,0.547L796.453,1175.996z M1017.106,1042.045c-0.17-0.674-0.233-1.349-0.215-2.011l-0.352-0.032
				c-0.021,0.701,0.046,1.415,0.226,2.129c0.488,1.938,1.672,3.512,3.212,4.54l0.205-0.285
				C1018.707,1045.404,1017.573,1043.899,1017.106,1042.045z M891.764,1041.134l0.146,0.107c2.349-3.592,3.811-7.751,4.182-12.12
				l-0.188-0.017l0.029-0.595l0.206,0.019c0.162-2.628-0.068-5.324-0.745-8.014c-3.529-14.023-17.754-22.532-31.772-19.005
				c-14.018,3.528-22.521,17.757-18.991,31.78c2.44,9.696,9.994,16.753,19.057,19.021l0.227-1.104l0.589,0.084l-0.236,1.153
				c3.88,0.878,8.016,0.888,12.137-0.149c6.431-1.618,11.694-5.492,15.175-10.562l-0.137-0.101L891.764,1041.134z M876.11,1051.141
				c-13.381,3.368-26.959-4.754-30.328-18.141s4.747-26.969,18.129-30.336c13.381-3.367,26.959,4.755,30.328,18.142
				C897.607,1034.191,889.491,1047.773,876.11,1051.141z M838.185,1176.705l-23.475,1.271c0.025,0.197,0.044,0.395,0.057,0.592
				l23.295-1.262L826.234,1235h0.605l11.835-57.727l78.824-4.269c-0.012-0.199-0.017-0.396-0.021-0.594l-78.68,4.261l25.467-124.228
				c-0.193-0.043-0.387-0.085-0.579-0.134L838.185,1176.705z M917.639,1172.997l-0.14,0.008c0.059,0.969,0.196,1.945,0.442,2.921
				c1.648,6.547,7.17,11.08,13.501,11.807l0.004-0.12l0.593-0.054l-0.008,0.235c1.652,0.126,3.351,0.005,5.046-0.422
				c8.442-2.125,13.563-10.694,11.438-19.141c-2.126-8.446-10.693-13.571-19.136-11.446c-7.269,1.829-12.061,8.436-11.902,15.626
				l0.09-0.005L917.639,1172.997z M929.555,1157.48c8.059-2.028,16.236,2.863,18.266,10.926s-2.859,16.242-10.918,18.271
				s-16.237-2.864-18.266-10.926C916.607,1167.688,921.496,1159.508,929.555,1157.48z M929.953,1235h0.59l1.488-47.206
				c-0.197-0.016-0.393-0.039-0.589-0.062L929.953,1235z"/>
		</g>
	</g>
</g>
<g id="Ellipse_2_copy_36_1_" opacity="0.4392" enable-background="new    ">
	<g id="Ellipse_2_copy_36">
		<g>
			<path fill="#C7C7C7" d="M594.663,0l-83.245,18.255c0.045,0.149,0.092,0.298,0.128,0.451L596.854,0H594.663z M488.801,0h-0.581
				l10.666,14.031c0.125-0.091,0.256-0.172,0.386-0.256L488.801,0z M505.087,0h-0.466l-0.5,12.482
				c0.154,0.009,0.31,0.032,0.464,0.05L505.087,0z M499.521,14.103l-0.026-0.035c-0.13,0.083-0.262,0.165-0.386,0.255l0.116,0.152
				L499.521,14.103z M395.92,0h-0.764c-0.169,0.866-0.393,1.709-0.693,2.511l0.746,0.12C395.516,1.789,395.75,0.908,395.92,0z
				 M614.46,2.59c-2.184-0.352-4.126-1.279-5.72-2.59h-0.875c1.755,1.61,3.977,2.75,6.503,3.156
				c3.958,0.638,7.776-0.646,10.523-3.156h-0.88C621.434,2.111,618.007,3.161,614.46,2.59z M922.608,0h-0.477l-0.374,21.736
				l0.477,0.004L922.608,0z M394.291,2.483l0.03,0.367c0.046-0.114,0.099-0.224,0.142-0.339L394.291,2.483z M691.294,50.613
				L629.388,0h-0.748l62.391,51.012L691.294,50.613z M922.024,21.819c-18.191-2.932-35.316,9.445-38.249,27.645
				c-0.607,3.769-0.549,7.489,0.072,11.05l1.525-0.076c-0.624-3.455-0.689-7.07-0.1-10.732c2.799-17.372,19.145-29.187,36.51-26.389
				c17.364,2.798,29.172,19.149,26.373,36.521s-19.146,29.187-36.51,26.388c-13.538-2.181-23.696-12.6-26.19-25.318l-1.529,0.077
				c2.54,13.421,13.22,24.442,27.479,26.739c18.191,2.932,35.315-9.445,38.248-27.645S940.216,24.75,922.024,21.819z M394.321,2.85
				c-2.674,6.659-9.669,10.832-17.05,9.643C370.596,11.417,365.605,6.272,364.379,0h-0.761c1.235,6.636,6.49,12.097,13.534,13.231
				c7.753,1.249,15.103-3.148,17.887-10.159l-0.709-0.114L394.321,2.85z M726.699,68.394c-0.02,0.143-0.023,0.284-0.047,0.427
				c-0.003,0.017-0.008,0.034-0.011,0.051l157.285-7.888c-0.029-0.156-0.052-0.314-0.079-0.471L726.699,68.394z M395.209,2.631
				c-0.054,0.148-0.112,0.294-0.17,0.441l100.626,16.202c0.025-0.154,0.063-0.303,0.097-0.454L395.209,2.631z M722.354,0h-0.472
				l-8.9,45.947c0.146,0.051,0.299,0.089,0.443,0.143L722.354,0z M504.894,12.937c3.016,0.486,5.333,2.659,6.164,5.398l0.361-0.079
				c-0.864-2.883-3.297-5.172-6.467-5.683c-0.123-0.02-0.244-0.026-0.366-0.04l-0.003,0.074l-0.47,0.079l0.008-0.204
				c-1.762-0.102-3.444,0.384-4.849,1.292l0.223,0.293C501.041,13.076,502.938,12.622,504.894,12.937z M511.298,21.806
				c-0.68,4.219-4.649,7.088-8.866,6.409c-4.218-0.68-7.085-4.65-6.405-8.87c0.338-2.098,1.491-3.861,3.083-5.021l-0.223-0.292
				c-1.544,1.127-2.684,2.801-3.124,4.79l0.14,0.022l0.039,0.476l-0.276-0.044c0,0.004-0.002,0.008-0.002,0.012
				c-0.713,4.42,2.292,8.58,6.71,9.292s8.576-2.294,9.289-6.714c0.175-1.084,0.123-2.152-0.116-3.158l-0.36,0.079
				C511.416,19.747,511.465,20.769,511.298,21.806z M510.577,18.919l0.609-0.134c-0.036-0.152-0.083-0.301-0.129-0.451l-0.666,0.146
				L510.577,18.919z M726.083,68.425l0.616-0.031c1.37-9.778-4.319-18.977-13.273-22.305l-0.003,0.018l-0.476,0.023l0.036-0.184
				c-1.123-0.389-2.286-0.706-3.5-0.901c-11.305-1.821-21.946,5.87-23.769,17.18s5.864,21.954,17.169,23.775
				c11.288,1.818,21.911-5.848,23.758-17.129l-0.487,0.024L726.083,68.425z M725.723,68.672
				c-1.74,10.795-11.897,18.138-22.688,16.398c-10.791-1.738-18.129-11.899-16.39-22.695c1.74-10.795,11.897-18.137,22.688-16.398
				C720.124,47.716,727.462,57.876,725.723,68.672z M885.462,60.907l-0.071-0.471l-0.018,0.001c0.028,0.156,0.052,0.314,0.083,0.47
				L885.462,60.907z"/>
		</g>
	</g>
</g>
</svg>
