<?xml version="1.0" encoding="UTF-8"?>
<svg width="48px" height="48px" viewBox="0 0 48 48" version="1.1" xmlns="http://www.w3.org/2000/svg" xmlns:xlink="http://www.w3.org/1999/xlink">
    <!-- Generator: Sketch 62 (91390) - https://sketch.com -->
    <title>ico-video-call</title>
    <desc>Created with Sketch.</desc>
    <g id="Website" stroke="none" stroke-width="1" fill="none" fill-rule="evenodd" opacity="0.900000036">
        <g id="homepage-1680" transform="translate(-1137.000000, -2882.000000)" fill="#EBEBED" fill-rule="nonzero">
            <g id="ico-video-call" transform="translate(1137.000000, 2882.000000)">
                <g id="Group-2">
                    <path d="M45.1875,19.78125 L32.4426562,19.78125 L30.4088437,22.8327188 C29.8430625,23.6731875 28.8666562,25.1247187 26.7188437,25.1247187 C24.3925312,25.1247187 22.5000937,23.2322812 22.5000937,20.9059687 L22.5000937,19.0204688 C20.7930937,18.0399375 19.6875937,16.18875 19.6875937,14.15625 L19.6875937,2.8125 L4.21875,2.8125 C1.8924375,2.8125 0,4.7049375 0,7.03125 L0,33.84375 L5.625,33.84375 C5.625,30.6642187 7.4131875,27.9235312 10.0172812,26.4855 C9.04378125,25.4738438 8.4375,24.10575 8.4375,22.59375 C8.4375,19.4914687 10.9602187,16.96875 14.0625,16.96875 C17.1647813,16.96875 19.6875,19.4914687 19.6875,22.59375 C19.6875,24.10575 19.0814063,25.4738438 18.1079062,26.4855 C20.712,27.9235312 22.5,30.6642187 22.5,33.84375 L48,33.84375 L48,18.999 C47.169375,19.4834063 46.2165938,19.78125 45.1875,19.78125 Z" id="Path"></path>
                    <path d="M14.0625,19.78125 C12.5120625,19.78125 11.25,21.0433125 11.25,22.59375 C11.25,24.1441875 12.5120625,25.40625 14.0625,25.40625 C15.6129375,25.40625 16.875,24.1441875 16.875,22.59375 C16.875,21.0433125 15.6129375,19.78125 14.0625,19.78125 Z" id="Path"></path>
                    <path d="M6.97134375,36.65625 C6.70771875,36.65625 6.6165,36.65625 6.6135,36.65625 C5.9506875,36.65625 4.19615625,36.65625 0,36.65625 L0,38.0625 C0,40.3888125 1.8924375,42.28125 4.21875,42.28125 L16.875,42.28125 L16.875,45.1875 L12.65625,45.1875 C11.8789687,45.1875 11.25,45.8164687 11.25,46.59375 C11.25,47.3710313 11.8789687,48 12.65625,48 C24.0871875,48 23.8190625,48 35.25,48 C36.0272813,48 36.65625,47.3710313 36.65625,46.59375 C36.65625,45.8164687 36.0272813,45.1875 35.25,45.1875 L30.9375,45.1875 L30.9375,42.28125 L43.78125,42.28125 C46.1075625,42.28125 48,40.3888125 48,38.0625 L48,36.65625 C16.239375,36.65625 8.5415625,36.65625 6.97134375,36.65625 Z" id="Path"></path>
                    <path d="M14.0625,28.21875 C10.9602187,28.21875 8.4375,30.7414687 8.4375,33.84375 L19.6875,33.84375 C19.6875,30.7414687 17.1647813,28.21875 14.0625,28.21875 Z" id="Path"></path>
                    <path d="M45.1875,-4.26325641e-14 L25.3125,-4.26325641e-14 C23.765625,-4.26325641e-14 22.5,1.265625 22.5,2.8125 L22.5,14.15625 C22.5,15.3374062 23.2594687,16.40625 24.3842813,16.8 L25.3125,17.1375 L25.3125,20.9063437 C25.3125,21.69375 25.9311563,22.3125937 26.71875,22.3125937 C27.4212188,22.3125937 27.6570938,21.878625 28.0686563,21.2719687 L30.9375,16.96875 L45.1875,16.96875 C46.734375,16.96875 48,15.703125 48,14.15625 L48,2.8125 C48,1.265625 46.734375,-4.26325641e-14 45.1875,-4.26325641e-14 Z M42.375,12.75 L28.125,12.75 C27.3477187,12.75 26.71875,12.1210312 26.71875,11.34375 C26.71875,10.5664687 27.3477187,9.9375 28.125,9.9375 L42.375,9.9375 C43.1522813,9.9375 43.78125,10.5664687 43.78125,11.34375 C43.78125,12.1210312 43.1522813,12.75 42.375,12.75 Z M42.375,7.03125 L28.125,7.03125 C27.3477187,7.03125 26.71875,6.40228125 26.71875,5.625 C26.71875,4.84771875 27.3477187,4.21875 28.125,4.21875 L42.375,4.21875 C43.1522813,4.21875 43.78125,4.84771875 43.78125,5.625 C43.78125,6.40228125 43.1522813,7.03125 42.375,7.03125 Z" id="Shape"></path>
                </g>
            </g>
        </g>
    </g>
</svg>