<?xml version="1.0" encoding="UTF-8"?>
<svg width="38px" height="38px" viewBox="0 0 38 38" version="1.1" xmlns="http://www.w3.org/2000/svg" xmlns:xlink="http://www.w3.org/1999/xlink">
    <!-- Generator: Sketch 62 (91390) - https://sketch.com -->
    <title>ico-find</title>
    <desc>Created with Sketch.</desc>
    <g id="Website" stroke="none" stroke-width="1" fill="none" fill-rule="evenodd">
        <g id="homepage-1680" transform="translate(-875.000000, -7396.000000)" fill="#626571" fill-rule="nonzero">
            <g id="ico-find" transform="translate(875.000000, 7396.000000)">
                <path d="M29.0293884,8.97061161 C27.0808563,7.02236942 24.5205993,6.04766846 21.9612122,6.04766846 C19.4009552,6.04766846 16.8418579,7.02178955 14.892746,8.97061161 C10.9953919,12.8682556 10.9953919,19.20961 14.892746,23.1069641 C18.79039,27.0046081 25.1320343,27.0046081 29.0293884,23.1069641 C32.9267425,19.20961 32.9267425,12.8682556 29.0293884,8.97061161 Z" id="Path"></path>
                <path d="M33.3021851,4.69781494 C30.2731323,1.66847231 26.2453156,0 21.9612122,0 C17.6771087,0 13.649292,1.66847231 10.6199494,4.69781494 C7.59060673,7.72715757 5.92213442,11.7546844 5.92213442,16.0390778 C5.92213442,20.3231812 7.59031675,24.350708 10.6199494,27.3800506 C13.649292,30.4093933 17.6771087,32.0778656 21.9612122,32.0778656 C26.2453156,32.0778656 30.2731323,30.4096832 33.3021851,27.3800506 C36.3315277,24.350708 38,20.3231812 38,16.0390778 C38,11.7549743 36.3315277,7.72715757 33.3021851,4.69781494 Z M30.6036377,24.6815033 C28.2208099,27.0640412 25.0908661,28.2556 21.9612122,28.2556 C18.8312683,28.2556 15.7013245,27.0640412 13.3184967,24.6815033 C8.55313114,19.9158478 8.55313114,12.1620179 13.3184967,7.3966522 C18.0841522,2.63128662 25.8379821,2.63099672 30.6036377,7.3966522 C35.3690033,12.1620179 35.3690033,19.9158478 30.6036377,24.6815033 Z" id="Shape"></path>
                <path d="M7.23864746,26.5355225 L0.866561871,32.8748474 C0.307891883,33.4338073 0,34.1768646 0,34.9671784 C0,35.757492 0.307891883,36.5002594 0.866561871,37.0592194 C1.42552183,37.6178894 2.1682892,37.9257812 2.95860289,37.9257812 C3.74891664,37.9257812 4.49197391,37.6178894 5.04861454,37.0612487 L11.4241791,30.7184448 C10.6129914,30.1615143 9.84645082,29.5265961 9.13557436,28.8157196 C8.42730713,28.1074524 7.79412842,27.343811 7.23864746,26.5355225 Z" id="Path"></path>
            </g>
        </g>
    </g>
</svg>