<?xml version="1.0" encoding="UTF-8"?>
<svg width="70px" height="64px" viewBox="0 0 70 64" version="1.1" xmlns="http://www.w3.org/2000/svg" xmlns:xlink="http://www.w3.org/1999/xlink">
    <!-- Generator: Sketch 62 (91390) - https://sketch.com -->
    <title>ico-store</title>
    <desc>Created with Sketch.</desc>
    <defs>
        <linearGradient x1="50%" y1="100%" x2="50%" y2="3.061617e-15%" id="linearGradient-1">
            <stop stop-color="#4D505E" stop-opacity="0.595498252" offset="0%"></stop>
            <stop stop-color="#4D505E" offset="100%"></stop>
        </linearGradient>
    </defs>
    <g id="Website" stroke="none" stroke-width="1" fill="none" fill-rule="evenodd">
        <g id="homepage-1680" transform="translate(-240.000000, -9852.000000)" fill="url(#linearGradient-1)" fill-rule="nonzero">
            <g id="ico-store" transform="translate(240.000000, 9852.000000)">
                <g id="Group-12" transform="translate(0.037033, 0.355793)">
                    <path d="M56.2898801,28.0790275 C58.1082521,29.9117548 60.6272162,31.0487738 63.4076813,31.0487738 C63.7667088,31.0487738 64.1221845,31.0234672 64.4732204,30.9860254 L64.4732204,30.9860254 L64.4732204,63.5873784 L31.0608737,63.5873784 L31.0608737,41.0602537 L14.2334953,41.0602537 L14.2334953,63.5873784 L5.39618026,63.5873784 L5.39618026,30.9875053 C5.74573629,31.0239112 6.10135997,31.0487738 6.46112741,31.0487738 C9.24159252,31.0487738 11.7617405,29.9119027 13.5804086,28.0790275 C15.3989287,29.9117548 17.9177447,31.0487738 20.6982099,31.0487738 C23.478675,31.0487738 25.9973431,29.9119027 27.8160111,28.0790275 C29.6345312,29.9117548 32.1546792,31.0487738 34.9351443,31.0487738 C37.7142775,31.0487738 40.2342775,29.9119027 42.0529456,28.0790275 C43.8713177,29.9117548 46.3914657,31.0487738 49.1707469,31.0487738 C51.951212,31.0487738 54.47136,29.9119027 56.2898801,28.0790275 Z M56.0958631,41.0602537 L39.1474276,41.0602537 L39.1474276,52.6818816 L56.0958631,52.6818816 L56.0958631,41.0602537 Z M58.6621845,-4.90274488e-13 L69.0896686,18.2606765 C71.2130513,22.3335518 68.8006411,27.5566173 64.2374699,28.0864271 C63.9651655,28.1182452 63.6881253,28.1345243 63.4073853,28.1345243 C59.476138,28.1345243 56.2891401,24.9473784 56.2891401,21.0159831 C56.2891401,24.9473784 53.1022902,28.1345243 49.1708948,28.1345243 C45.2397955,28.1345243 42.0526496,24.9473784 42.0526496,21.0159831 C42.0526496,24.9473784 38.8657997,28.1345243 34.9344044,28.1345243 C31.003009,28.1345243 27.8160111,24.9473784 27.8160111,21.0159831 C27.8160111,24.9473784 24.6291612,28.1345243 20.6977659,28.1345243 C16.7665185,28.1345243 13.5795206,24.9473784 13.5795206,21.0159831 C13.5795206,24.9473784 10.3926707,28.1345243 6.4612754,28.1345243 C6.18053544,28.1345243 5.90349527,28.1182452 5.63119083,28.0864271 C1.06831557,27.5567653 -1.34394659,22.3335518 0.779288084,18.2606765 L0.779288084,18.2606765 L11.2067722,-4.90274488e-13 L58.6621845,-4.90274488e-13 Z" id="Combined-Shape"></path>
                </g>
            </g>
        </g>
    </g>
</svg>