<?xml version="1.0" encoding="UTF-8"?>
<svg width="62px" height="76px" viewBox="0 0 62 76" version="1.1" xmlns="http://www.w3.org/2000/svg" xmlns:xlink="http://www.w3.org/1999/xlink">
    <!-- Generator: Sketch 62 (91390) - https://sketch.com -->
    <title>ico-corpo</title>
    <desc>Created with Sketch.</desc>
    <defs>
        <linearGradient x1="50%" y1="100%" x2="50%" y2="3.061617e-15%" id="linearGradient-1">
            <stop stop-color="#4D505E" stop-opacity="0.595498252" offset="0%"></stop>
            <stop stop-color="#4D505E" offset="100%"></stop>
        </linearGradient>
    </defs>
    <g id="Website" stroke="none" stroke-width="1" fill="none" fill-rule="evenodd">
        <g id="homepage-1680" transform="translate(-921.000000, -9845.000000)" fill="url(#linearGradient-1)" fill-rule="nonzero">
            <g id="ico-corpo" transform="translate(920.000000, 9845.000000)">
                <path d="M60.177177,70.8831753 L55.3572739,70.8831753 L55.3572739,10.9991134 C55.3572739,9.64912501 54.2630149,8.55486599 52.9130265,8.55486599 L34.5811708,8.55486599 L34.5811708,2.44424743 C34.5811708,1.09425902 33.4869117,7.67386155e-13 32.1369233,7.67386155e-13 L15.1799568,7.67386155e-13 C13.8299684,7.67386155e-13 12.7357094,1.09425902 12.7357094,2.44424743 L12.7357094,8.55486599 L10.7497584,8.55486599 C9.39976996,8.55486599 8.30551094,9.64912501 8.30551094,10.9991134 L8.30551094,70.8831753 L3.48560778,70.8831753 C2.16907502,70.8831753 1.0367774,71.8953993 0.975518444,73.2104044 C0.910134826,74.6141663 2.02776696,75.7716702 3.41701609,75.7716702 L20.832279,75.7716702 C21.5071968,75.7716702 22.0544027,75.2244643 22.0544027,74.5495465 L22.0544027,60.4951238 L21.0540945,60.4951238 C19.73802,60.4951238 18.6055696,59.4836636 18.5435468,58.1691168 C18.4773994,56.7655077 19.5959481,55.6066289 20.9850445,55.6066289 C21.7230544,55.6066289 43.2192939,55.6066289 42.6086904,55.6066289 C43.9247648,55.6066289 45.0572152,56.6180891 45.119238,57.9326359 C45.1853855,59.336245 44.0669895,60.4951238 42.6777404,60.4951238 L41.6083821,60.4951238 L41.6083821,74.5495465 C41.6083821,75.2244643 42.155588,75.7716702 42.8305058,75.7716702 L60.2457687,75.7716702 C61.6350179,75.7716702 62.75265,74.6141663 62.6872664,73.2104044 C62.6260074,71.8953993 61.4937098,70.8831753 60.177177,70.8831753 Z M25.8735393,50.5653686 L23.123761,50.5653686 C21.7739253,50.5653686 20.6795135,49.4709568 20.6795135,48.1211212 C20.6795135,46.7712855 21.7739253,45.6768738 23.123761,45.6768738 L25.8735393,45.6768738 C27.223375,45.6768738 28.3177867,46.7712855 28.3177867,48.1211212 C28.3177867,49.4709568 27.223375,50.5653686 25.8735393,50.5653686 Z M25.8735393,41.3994408 L23.123761,41.3994408 C21.7739253,41.3994408 20.6795135,40.305029 20.6795135,38.9551933 C20.6795135,37.6053577 21.7739253,36.5109459 23.123761,36.5109459 L25.8735393,36.5109459 C27.223375,36.5109459 28.3177867,37.6053577 28.3177867,38.9551933 C28.3177867,40.305029 27.223375,41.3994408 25.8735393,41.3994408 Z M25.8735393,32.2335129 L23.123761,32.2335129 C21.7739253,32.2335129 20.6795135,31.1391011 20.6795135,29.7892655 C20.6795135,28.4394299 21.7739253,27.3450181 23.123761,27.3450181 L25.8735393,27.3450181 C27.223375,27.3450181 28.3177867,28.4394299 28.3177867,29.7892655 C28.3177867,31.1391011 27.223375,32.2335129 25.8735393,32.2335129 Z M25.8735393,23.0675851 L23.123761,23.0675851 C21.7739253,23.0675851 20.6795135,21.9731733 20.6795135,20.6233377 C20.6795135,19.273502 21.7739253,18.1790902 23.123761,18.1790902 L25.8735393,18.1790902 C27.223375,18.1790902 28.3177867,19.273502 28.3177867,20.6233377 C28.3177867,21.9731733 27.223375,23.0675851 25.8735393,23.0675851 Z M40.3862584,50.5653686 L37.63648,50.5653686 C36.2864916,50.5653686 35.1922326,49.4709568 35.1922326,48.1211212 C35.1922326,46.7712855 36.2864916,45.6768738 37.63648,45.6768738 L40.3862584,45.6768738 C41.7362468,45.6768738 42.8305058,46.7712855 42.8305058,48.1211212 C42.8305058,49.4709568 41.7362468,50.5653686 40.3862584,50.5653686 Z M40.3862584,41.3994408 L37.63648,41.3994408 C36.2864916,41.3994408 35.1922326,40.305029 35.1922326,38.9551933 C35.1922326,37.6053577 36.2864916,36.5109459 37.63648,36.5109459 L40.3862584,36.5109459 C41.7362468,36.5109459 42.8305058,37.6053577 42.8305058,38.9551933 C42.8305058,40.305029 41.7362468,41.3994408 40.3862584,41.3994408 Z M40.3862584,32.2335129 L37.63648,32.2335129 C36.2864916,32.2335129 35.1922326,31.1391011 35.1922326,29.7892655 C35.1922326,28.4394299 36.2864916,27.3450181 37.63648,27.3450181 L40.3862584,27.3450181 C41.7362468,27.3450181 42.8305058,28.4394299 42.8305058,29.7892655 C42.8305058,31.1391011 41.7362468,32.2335129 40.3862584,32.2335129 Z M40.3862584,23.0675851 L37.63648,23.0675851 C36.2864916,23.0675851 35.1922326,21.9731733 35.1922326,20.6233377 C35.1922326,19.273502 36.2864916,18.1790902 37.63648,18.1790902 L40.3862584,18.1790902 C41.7362468,18.1790902 42.8305058,19.273502 42.8305058,20.6233377 C42.8305058,21.9731733 41.7362468,23.0675851 40.3862584,23.0675851 Z M26.9428976,74.5495465 L26.9428976,61.7172475 C26.9428976,61.0423297 27.4901035,60.4951238 28.1650213,60.4951238 L35.4977636,60.4951238 C36.1726814,60.4951238 36.7198873,61.0423297 36.7198873,61.7172475 L36.7198873,74.5495465 C36.7198873,75.2244643 36.1726814,75.7716702 35.4977636,75.7716702 L28.1650213,75.7716702 C27.4901035,75.7716702 26.9428976,75.2244643 26.9428976,74.5495465 Z" id="Shape"></path>
            </g>
        </g>
    </g>
</svg>