<?xml version="1.0" encoding="UTF-8"?>
<svg width="29px" height="39px" viewBox="0 0 29 39" version="1.1" xmlns="http://www.w3.org/2000/svg" xmlns:xlink="http://www.w3.org/1999/xlink">
    <!-- Generator: Sketch 62 (91390) - https://sketch.com -->
    <title>ico-template</title>
    <desc>Created with Sketch.</desc>
    <g id="Website" stroke="none" stroke-width="1" fill="none" fill-rule="evenodd">
        <g id="homepage-1680" transform="translate(-545.000000, -7396.000000)" fill-rule="nonzero">
            <g id="ico-template" transform="translate(545.000000, 7396.000000)">
                <g id="Group-11" transform="translate(0.042568, 0.000000)" fill="#626571">
                    <path d="M28.6028175,34.1331033 L28.6028175,4.01587414 C28.6028175,1.80782426 26.8152869,2.27373675e-13 24.5817882,2.27373675e-13 L12.1545429,2.27373675e-13 L12.1545429,8.12275391 C12.1545429,10.3371144 10.3503841,12.138628 8.13318106,12.138628 L0,12.138628 L0,34.1331033 C0,36.3474638 1.80382622,38.1489774 4.02102931,38.1489774 L24.5817882,38.1489774 C26.7926725,38.1489774 28.6028175,36.3637385 28.6028175,34.1331033 L28.6028175,34.1331033 Z M8.5735928,18.9836491 L6.23713745,18.9836491 C5.53043933,18.9836491 4.95743183,18.4113762 4.95743183,17.7055841 C4.95743183,16.999792 5.53043933,16.4275191 6.23713745,16.4275191 L8.5735928,16.4275191 C9.28029092,16.4275191 9.85329843,16.999792 9.85329843,17.7055841 C9.85329843,18.4113762 9.28029092,18.9836491 8.5735928,18.9836491 Z M15.5735928,18.9836491 L13.2371375,18.9836491 C12.5304393,18.9836491 11.9574318,18.4113762 11.9574318,17.7055841 C11.9574318,16.999792 12.5304393,16.4275191 13.2371375,16.4275191 L15.5735928,16.4275191 C16.2802909,16.4275191 16.8532984,16.999792 16.8532984,17.7055841 C16.8532984,18.4113762 16.2802909,18.9836491 15.5735928,18.9836491 Z M22.5735928,18.9836491 L20.2371375,18.9836491 C19.5304393,18.9836491 18.9574318,18.4113762 18.9574318,17.7055841 C18.9574318,16.999792 19.5304393,16.4275191 20.2371375,16.4275191 L22.5735928,16.4275191 C23.2802909,16.4275191 23.8532984,16.999792 23.8532984,17.7055841 C23.8532984,18.4113762 23.2802909,18.9836491 22.5735928,18.9836491 Z M8.5735928,23.55613 L6.23713745,23.55613 C5.53043933,23.55613 4.95743183,22.9838571 4.95743183,22.278065 C4.95743183,21.5722729 5.53043933,21 6.23713745,21 L8.5735928,21 C9.28029092,21 9.85329843,21.5722729 9.85329843,22.278065 C9.85329843,22.9838571 9.28029092,23.55613 8.5735928,23.55613 Z M15.5735928,23.55613 L13.2371375,23.55613 C12.5304393,23.55613 11.9574318,22.9838571 11.9574318,22.278065 C11.9574318,21.5722729 12.5304393,21 13.2371375,21 L15.5735928,21 C16.2802909,21 16.8532984,21.5722729 16.8532984,22.278065 C16.8532984,22.9838571 16.2802909,23.55613 15.5735928,23.55613 Z M22.5735928,23.55613 L20.2371375,23.55613 C19.5304393,23.55613 18.9574318,22.9838571 18.9574318,22.278065 C18.9574318,21.5722729 19.5304393,21 20.2371375,21 L22.5735928,21 C23.2802909,21 23.8532984,21.5722729 23.8532984,22.278065 C23.8532984,22.9838571 23.2802909,23.55613 22.5735928,23.55613 Z M8.5735928,28.55613 L6.23713745,28.55613 C5.53043933,28.55613 4.95743183,27.9838571 4.95743183,27.278065 C4.95743183,26.5722729 5.53043933,26 6.23713745,26 L8.5735928,26 C9.28029092,26 9.85329843,26.5722729 9.85329843,27.278065 C9.85329843,27.9838571 9.28029092,28.55613 8.5735928,28.55613 Z M15.5735928,28.55613 L13.2371375,28.55613 C12.5304393,28.55613 11.9574318,27.9838571 11.9574318,27.278065 C11.9574318,26.5722729 12.5304393,26 13.2371375,26 L15.5735928,26 C16.2802909,26 16.8532984,26.5722729 16.8532984,27.278065 C16.8532984,27.9838571 16.2802909,28.55613 15.5735928,28.55613 Z M22.5735928,28.55613 L20.2371375,28.55613 C19.5304393,28.55613 18.9574318,27.9838571 18.9574318,27.278065 C18.9574318,26.5722729 19.5304393,26 20.2371375,26 L22.5735928,26 C23.2802909,26 23.8532984,26.5722729 23.8532984,27.278065 C23.8532984,27.9838571 23.2802909,28.55613 22.5735928,28.55613 Z" id="Shape"></path>
                </g>
                <path d="M2.12770536,8.4721894 L8.56753926,1.88100214 L8.6373498,8.12677692 L2.12770536,8.4721894 Z" id="Path" stroke="#626571" stroke-width="2"></path>
            </g>
        </g>
    </g>
</svg>