<?xml version="1.0" encoding="UTF-8"?>
<svg width="197px" height="155px" viewBox="0 0 197 155" version="1.1" xmlns="http://www.w3.org/2000/svg" xmlns:xlink="http://www.w3.org/1999/xlink">
    <!-- Generator: Sketch 62 (91390) - https://sketch.com -->
    <title>“</title>
    <desc>Created with Sketch.</desc>
    <g id="Website" stroke="none" stroke-width="1" fill="none" fill-rule="evenodd">
        <g id="homepage-1680-p2" transform="translate(-165.000000, -189.000000)" fill="#FFFFFF" fill-rule="nonzero">
            <g id="Group-5">
                <path d="M240.258635,331.172414 C257.281398,313.534483 257.281398,285.206897 239.726673,268.637931 C231.215292,260.086207 220.576065,256.87931 209.936838,255.810345 C201.425456,254.741379 208.340954,220 238.662751,196.482759 L232.811176,189 C208.340954,202.362069 195.573881,219.465517 188.126422,231.224138 C171.103659,256.87931 151.421089,304.448276 178.019157,331.172414 C195.04192,348.275862 223.235871,348.275862 240.258635,331.172414 Z M349.298655,331.172414 C366.321419,313.534483 366.321419,285.206897 348.766694,268.637931 C340.255313,260.086207 329.616086,256.87931 318.976859,255.810345 C310.465477,254.741379 317.380974,220 347.702771,196.482759 L341.851197,189 C317.380974,202.362069 304.613902,219.465517 297.166443,231.224138 C280.14368,256.87931 260.46111,304.448276 287.059178,331.172414 C304.081941,348.275862 332.275892,348.275862 349.298655,331.172414 Z" id="“"></path>
            </g>
        </g>
    </g>
</svg>