<?xml version="1.0" encoding="UTF-8"?>
<svg width="38px" height="38px" viewBox="0 0 38 38" version="1.1" xmlns="http://www.w3.org/2000/svg" xmlns:xlink="http://www.w3.org/1999/xlink">
    <!-- Generator: Sketch 63.1 (92452) - https://sketch.com -->
    <title>ico-calendar</title>
    <desc>Created with Sketch.</desc>
    <g id="Page-1" stroke="none" stroke-width="1" fill="none" fill-rule="evenodd">
        <g id="ico-calendar" transform="translate(19.000000, 19.000000) scale(-1, 1) translate(-19.000000, -19.000000) " fill="#D7D8DB" fill-rule="nonzero">
            <path d="M34.2,3.8 L32.3,3.8 L32.3,1.9 C32.3,0.76 31.54,0 30.4,0 C29.26,0 28.5,0.76 28.5,1.9 L28.5,3.8 L9.5,3.8 L9.5,1.9 C9.5,0.76 8.74,0 7.6,0 C6.46,0 5.7,0.76 5.7,1.9 L5.7,3.8 L1.9,3.8 C0.95,3.8 0,4.56 0,5.7 L0,32.3 C0,33.44 0.95,34.2 1.9,34.2 L13.49,34.2 C12.16,31.92 11.4,29.26 11.4,26.6 C11.4,18.24 18.24,11.4 26.6,11.4 C30.21,11.4 33.44,12.73 36.1,14.82 L36.1,5.7 C36.1,4.75 35.15,3.8 34.2,3.8 Z" id="Path"></path>
            <path d="M26.6,15.2 C32.87,15.2 38,20.33 38,26.6 C38,32.87 32.87,38 26.6,38 C20.33,38 15.2,32.87 15.2,26.6 C15.2,20.33 20.33,15.2 26.6,15.2 Z M27.4,20 C26.26,20 25.5,20.76 25.5,21.9 L25.5,25.7 L23.6,25.7 C22.46,25.7 21.7,26.46 21.7,27.6 C21.7,28.74 22.46,29.5 23.6,29.5 L27.4,29.5 C28.54,29.5 29.3,28.74 29.3,27.6 L29.3,21.9 C29.3,20.76 28.54,20 27.4,20 Z" id="Shape"></path>
        </g>
    </g>
</svg>