<?xml version="1.0" encoding="UTF-8"?>
<svg width="35px" height="44px" viewBox="0 0 35 44" version="1.1" xmlns="http://www.w3.org/2000/svg" xmlns:xlink="http://www.w3.org/1999/xlink">
    <!-- Generator: Sketch 63.1 (92452) - https://sketch.com -->
    <title>ico-documents</title>
    <desc>Created with Sketch.</desc>
    <g id="Page-1" stroke="none" stroke-width="1" fill="none" fill-rule="evenodd">
        <g id="ico-documents" fill="#D7D8DB" fill-rule="nonzero">
            <g id="Group-11" transform="translate(0.042568, 0.000000)">
                <g id="Group" transform="translate(-0.000000, 0.000000)">
                    <path d="M9.59479912,8.20563915 L9.59479912,1.33226763e-14 L9.50400913,1.33226763e-14 C9.16446148,1.33226763e-14 8.8392141,0.136223853 8.59910297,0.378138528 L0.374799459,8.67571193 C0.13468833,8.9179622 4.88498131e-14,9.24610719 4.88498131e-14,9.58867986 L4.88498131e-14,9.6806142 L8.13318106,9.6806142 C8.93931579,9.6806142 9.59479912,9.01895569 9.59479912,8.20563915 Z" id="Path"></path>
                    <path d="M28.6028175,34.4814002 L28.6028175,4.05685245 C28.6028175,1.82627144 26.8152869,2.84217094e-14 24.5817882,2.84217094e-14 L12.1545429,2.84217094e-14 L12.1545429,8.20563915 C12.1545429,10.4425952 10.3503841,12.2624916 8.13318106,12.2624916 L-8.8817842e-15,12.2624916 L-8.8817842e-15,34.4814002 C-8.8817842e-15,36.7183563 1.80382622,38.5382527 4.02102931,38.5382527 L24.5817882,38.5382527 C26.7926725,38.5382527 28.6028175,36.7347971 28.6028175,34.4814002 L28.6028175,34.4814002 Z M14.9866565,30.2406792 L8.13318106,30.2406792 C7.42648294,30.2406792 6.85347544,29.6625669 6.85347544,28.9495727 C6.85347544,28.2365787 7.42648294,27.6584663 8.13318106,27.6584663 L14.9866565,27.6584663 C15.6936872,27.6584663 16.2663621,28.2365787 16.2663621,28.9495727 C16.2663621,29.6625669 15.6936872,30.2406792 14.9866565,30.2406792 Z M20.4696364,24.7088517 L8.13318106,24.7088517 C7.42648294,24.7088517 6.85347544,24.1310749 6.85347544,23.4177453 C6.85347544,22.7047512 7.42648294,22.1266388 8.13318106,22.1266388 L20.4696364,22.1266388 C21.1763345,22.1266388 21.749342,22.7047512 21.749342,23.4177453 C21.749342,24.1310749 21.1763345,24.7088517 20.4696364,24.7088517 Z M20.4696364,19.1773598 L8.13318106,19.1773598 C7.42648294,19.1773598 6.85347544,18.5992474 6.85347544,17.8862533 C6.85347544,17.1732593 7.42648294,16.5951469 8.13318106,16.5951469 L20.4696364,16.5951469 C21.1763345,16.5951469 21.749342,17.1732593 21.749342,17.8862533 C21.749342,18.5992474 21.1763345,19.1773598 20.4696364,19.1773598 Z" id="Shape"></path>
                    <path d="M31.1622318,5.59356439 L31.1622318,34.4814002 C31.1622318,38.1419958 28.2103922,41.1204656 24.5817882,41.1204656 L5.66223175,41.1204656 C6.17038929,42.7739408 7.70018291,43.9781458 9.50400913,43.9781458 L30.0644354,43.9781458 C32.2756524,43.9781458 34.0857974,42.1746902 34.0857974,39.9212934 L34.0857974,9.49674561 C34.0857974,7.64698734 32.8559763,6.07638723 31.1622318,5.59356439 Z" id="Path"></path>
                </g>
            </g>
        </g>
    </g>
</svg>