<?xml version="1.0" encoding="UTF-8"?>
<svg width="38px" height="38px" viewBox="0 0 38 38" version="1.1" xmlns="http://www.w3.org/2000/svg" xmlns:xlink="http://www.w3.org/1999/xlink">
    <!-- Generator: Sketch 63.1 (92452) - https://sketch.com -->
    <title>ico-video-call</title>
    <desc>Created with Sketch.</desc>
    <g id="Page-1" stroke="none" stroke-width="1" fill="none" fill-rule="evenodd">
        <g id="ico-video-call" fill="#D7D8DB" fill-rule="nonzero">
            <g id="Group-2">
                <path d="M38,29.0195312 L38,30.1328125 C38,31.9744766 36.5018203,33.4726562 34.6601562,33.4726562 L34.6601562,33.4726562 L24.4921875,33.4726562 L24.4921875,35.7734375 L27.90625,35.7734375 C28.5215977,35.7734375 29.0195312,36.2713711 29.0195312,36.8867187 C29.0195312,37.5020664 28.5215977,38 27.90625,38 L27.90625,38 L10.0195312,38 C9.40418359,38 8.90625,37.5020664 8.90625,36.8867187 C8.90625,36.2713711 9.40418359,35.7734375 10.0195312,35.7734375 L10.0195312,35.7734375 L13.359375,35.7734375 L13.359375,33.4726562 L3.33984375,33.4726562 C1.49817969,33.4726562 0,31.9744766 0,30.1328125 L0,30.1328125 L0,29.0195312 L0,29.0195312 L38,29.0195312 Z M15.5860117,2.2265625 L15.5860117,11.2070312 C15.5860117,12.8160937 16.4611992,14.2816172 17.8125742,15.0578711 L17.8125742,15.0578711 L17.8125742,16.5505586 C17.8125742,18.3922227 19.3107539,19.8904023 21.152418,19.8904023 C22.8527695,19.8904023 23.6257578,18.7412734 24.073668,18.0759023 L24.073668,18.0759023 L25.6837695,15.6601562 L35.7734375,15.6601562 C36.5881367,15.6601562 37.3424219,15.4243633 38,15.040875 L38,15.040875 L38,26.7929687 L17.8125,26.7929687 C17.8125,24.2758398 16.397,22.1061289 14.3354258,20.9676875 C15.1061133,20.166793 15.5859375,19.0837187 15.5859375,17.8867187 C15.5859375,15.4307461 13.5887852,13.4335937 11.1328125,13.4335937 C8.67683984,13.4335937 6.6796875,15.4307461 6.6796875,17.8867187 C6.6796875,19.0837187 7.15966016,20.166793 7.93034766,20.9676875 C5.86877344,22.1061289 4.453125,24.2758398 4.453125,26.7929687 L4.453125,26.7929687 L0,26.7929687 L0,5.56640625 C0,3.72474219 1.49817969,2.2265625 3.33984375,2.2265625 L3.33984375,2.2265625 L15.5860117,2.2265625 Z M11.1328125,22.3398437 C13.5887852,22.3398437 15.5859375,24.3369961 15.5859375,26.7929687 L15.5859375,26.7929687 L6.6796875,26.7929687 C6.6796875,24.3369961 8.67683984,22.3398437 11.1328125,22.3398437 Z M11.1328125,15.6601562 C12.3602422,15.6601562 13.359375,16.6592891 13.359375,17.8867187 C13.359375,19.1141484 12.3602422,20.1132812 11.1328125,20.1132812 C9.90538281,20.1132812 8.90625,19.1141484 8.90625,17.8867187 C8.90625,16.6592891 9.90538281,15.6601562 11.1328125,15.6601562 Z M35.7734375,-4.60076421e-13 C36.9980469,-4.60076421e-13 38,1.00195312 38,2.2265625 L38,2.2265625 L38,11.2070312 C38,12.4316406 36.9980469,13.4335937 35.7734375,13.4335937 L35.7734375,13.4335937 L24.4921875,13.4335937 L22.2210195,16.8403086 C21.8951992,17.3205781 21.7084648,17.6641367 21.1523438,17.6641367 C20.528832,17.6641367 20.0390625,17.1742187 20.0390625,16.5508555 L20.0390625,16.5508555 L20.0390625,13.5671875 L19.3042227,13.3 C18.4137461,12.9882812 17.8125,12.1421133 17.8125,11.2070312 L17.8125,11.2070312 L17.8125,2.2265625 C17.8125,1.00195312 18.8144531,-4.60076421e-13 20.0390625,-4.60076421e-13 L20.0390625,-4.60076421e-13 Z M33.546875,7.8671875 L22.265625,7.8671875 C21.6502773,7.8671875 21.1523438,8.36512109 21.1523438,8.98046875 C21.1523438,9.59581641 21.6502773,10.09375 22.265625,10.09375 L22.265625,10.09375 L33.546875,10.09375 C34.1622227,10.09375 34.6601562,9.59581641 34.6601562,8.98046875 C34.6601562,8.36512109 34.1622227,7.8671875 33.546875,7.8671875 L33.546875,7.8671875 Z M33.546875,3.33984375 L22.265625,3.33984375 C21.6502773,3.33984375 21.1523438,3.83777734 21.1523438,4.453125 C21.1523438,5.06847266 21.6502773,5.56640625 22.265625,5.56640625 L22.265625,5.56640625 L33.546875,5.56640625 C34.1622227,5.56640625 34.6601562,5.06847266 34.6601562,4.453125 C34.6601562,3.83777734 34.1622227,3.33984375 33.546875,3.33984375 L33.546875,3.33984375 Z" id="Combined-Shape"></path>
            </g>
        </g>
    </g>
</svg>